<?xml version="1.0" encoding="utf-8"?>
<!-- Generated by IcoMoon.io -->
<!DOCTYPE svg PUBLIC "-//W3C//DTD SVG 1.1//EN" "http://www.w3.org/Graphics/SVG/1.1/DTD/svg11.dtd">
<svg version="1.1" xmlns="http://www.w3.org/2000/svg" xmlns:xlink="http://www.w3.org/1999/xlink" width="32" height="32" viewBox="0 0 32 32">
<path d="M18.196 1.694c-0.188 0.251-0.753 1.224-1.192 2.133-0.565 1.098-1.506 2.165-2.886 3.294-1.129 0.91-2.165 1.663-2.322 1.663s-0.533 0.188-0.784 0.439c-0.282 0.251-1.004 0.69-1.6 1.035-2.039 1.098-3.922 2.447-5.365 3.859-1.631 1.569-3.42 4.675-3.42 5.929 0 0.659 1.129 1.945 5.271 6.086 6.4 6.4 6.651 6.463 8.439 2.729 0.847-1.726 3.482-4.235 5.427-5.114 0.251-0.125 0.91-0.502 1.412-0.847 0.533-0.345 1.161-0.722 1.412-0.847 1.255-0.659 3.451-2.259 4.737-3.545 1.631-1.569 3.42-4.675 3.42-5.929 0-0.659-1.129-1.945-5.271-6.086-5.396-5.396-6.274-5.961-7.278-4.8zM24.408 8.22l4.486 4.58-0.627 1.161c-1.255 2.353-4.737 5.427-7.875 6.965-2.541 1.224-7.529 5.584-7.529 6.557 0 0.188-0.251 0.69-0.596 1.098l-0.565 0.722-4.518-4.643c-2.478-2.541-4.549-4.675-4.612-4.737-0.22-0.22 1.192-2.478 2.227-3.545 1.537-1.663 2.886-2.729 4.988-3.984 3.702-2.196 5.396-3.42 6.933-4.926 0.973-1.004 1.788-2.008 1.788-2.227 0-0.533 0.941-1.851 1.224-1.726 0.125 0.063 2.227 2.165 4.675 4.706z"></path>
<path d="M17.976 8.126c-1.914 2.071-2.102 2.541-1.067 2.541 0.722-0.031 3.451-2.918 3.545-3.765 0.157-1.255-0.471-0.941-2.478 1.224z"></path>
<path d="M13.333 12.361c-0.973 0.533-1.286 0.941-1.506 1.851-0.565 2.384 0.533 3.639 2.604 3.043 0.533-0.157 1.192-0.188 1.412-0.094 0.251 0.094 0.565-0.063 0.659-0.345 0.251-0.659 1.569-0.659 1.82 0.031 0.282 0.722-0.282 1.224-0.878 0.753-0.627-0.533-1.004 0.157-0.439 0.816 0.376 0.471 0.282 0.502-0.91 0.314-1.286-0.22-1.349-0.188-1.349 0.565 0 0.91 1.067 1.318 2.416 0.91 0.502-0.125 1.161-0.251 1.506-0.251 0.439-0.031 0.659-0.251 0.69-0.816 0.031-0.439 0.157-1.349 0.251-2.071 0.22-1.192 0.157-1.349-0.784-2.008-1.004-0.722-1.067-0.722-2.353-0.251-1.224 0.471-1.38 0.471-1.851 0s-0.502-0.439-0.502 0.345c0 0.91-0.282 1.067-0.878 0.471-0.502-0.502-0.471-1.192 0.063-1.192 0.251 0 0.502-0.22 0.627-0.471 0.094-0.282 0.565-0.471 1.098-0.471 1.192 0 1.506-0.502 0.784-1.286-0.659-0.722-0.878-0.722-2.478 0.157z"></path>
<path d="M12.58 23.529c-1.631 1.788-2.008 2.416-1.757 2.824 0.251 0.376 1.098 0.408 1.098 0.031 0-0.125 0.784-1.067 1.726-2.071s1.631-1.945 1.537-2.071c-0.376-0.627-1.286-0.157-2.604 1.286z"></path>
</svg>
