<?xml version="1.0" encoding="utf-8"?>
<!-- Generated by IcoMoon.io -->
<!DOCTYPE svg PUBLIC "-//W3C//DTD SVG 1.1//EN" "http://www.w3.org/Graphics/SVG/1.1/DTD/svg11.dtd">
<svg version="1.1" xmlns="http://www.w3.org/2000/svg" xmlns:xlink="http://www.w3.org/1999/xlink" width="32" height="32" viewBox="0 0 32 32">
<path d="M8.941 4.141c-4.047 1.788-8 6.682-8 10.071 0 1.788 1.129 3.953 3.388 6.4 2.729 3.106 3.2 4.047 2.353 5.647-0.565 1.035-1.035 2.071-1.035 2.353 0 1.224 2.729 0.471 4.988-1.318 1.412-1.129 3.765-1.882 5.741-1.882 7.247 0 14.682-5.741 14.682-11.294 0-3.294-4.047-8.282-8.188-9.976-3.859-1.6-10.259-1.6-13.929 0zM22.494 6.212c11.765 4.706 6.494 17.318-7.153 17.318-1.882 0-4.235 0.753-5.176 1.6-1.694 1.506-1.694 1.506-1.129 0 0.376-1.129-0.471-2.635-2.824-4.988-5.365-5.176-4.047-10.824 3.2-13.929 4.329-1.882 8.471-1.882 13.082 0z"></path>
<path d="M9.412 9.129c-2.824 1.882-3.765 3.106-3.671 4.988 0 0.753 0.565 0.282 1.412-1.129 0.941-1.788 2.729-3.012 5.835-3.953 3.859-1.224 4.047-1.412 1.6-1.412-1.6-0.094-3.953 0.659-5.176 1.506z"></path>
</svg>
