<?xml version="1.0" encoding="utf-8"?>
<!-- Generated by IcoMoon.io -->
<!DOCTYPE svg PUBLIC "-//W3C//DTD SVG 1.1//EN" "http://www.w3.org/Graphics/SVG/1.1/DTD/svg11.dtd">
<svg version="1.1" xmlns="http://www.w3.org/2000/svg" xmlns:xlink="http://www.w3.org/1999/xlink" width="32" height="32" viewBox="0 0 32 32">
<path d="M12.235 1.788c-0.596 0.251-1.318 0.596-1.569 0.753s-0.659 0.376-0.91 0.502c-1.192 0.565-3.137 3.2-3.859 5.208-0.314 0.878-0.565 2.322-0.565 3.2 0.031 1.474 0.753 4.141 1.412 5.176 1.537 2.353 3.639 6.996 4.204 9.255 0.126 0.533 0.408 1.255 0.596 1.631 0.22 0.376 0.376 0.973 0.376 1.318s0.533 1.035 1.161 1.569c1.663 1.38 3.702 1.38 5.271 0 0.596-0.533 1.098-1.192 1.098-1.443s0.188-0.91 0.439-1.443c0.251-0.565 0.502-1.349 0.596-1.788 0.345-1.694 2.667-6.965 3.326-7.529 0.282-0.22 1.129-2.133 1.757-3.859 0.596-1.694 0.533-4.706-0.188-6.526-0.878-2.227-3.231-4.831-4.988-5.49-0.251-0.094-0.941-0.376-1.506-0.627-1.38-0.596-5.239-0.533-6.651 0.094zM18.353 3.671c2.071 0.753 4.518 3.2 5.271 5.271 0.91 2.573 0.753 3.482-1.224 7.373-0.376 0.784-1.067 2.165-1.537 3.043l-0.816 1.663h-8.722l-0.878-1.694c-3.639-6.996-3.827-7.875-2.478-10.886 1.882-4.204 6.274-6.212 10.384-4.769zM19.451 23.341c0 0.314-0.502 0.533-1.474 0.659-0.847 0.125-1.914 0.345-2.416 0.502-1.349 0.439-2.416 0.345-3.075-0.251-1.255-1.129-0.784-1.349 3.2-1.349 3.075 0 3.765 0.094 3.765 0.439zM18.51 25.569c0 0.816-0.188 0.941-2.541 1.694-1.537 0.471-1.976 0.439-2.604-0.251-0.722-0.816-0.439-1.224 1.004-1.474 0.627-0.125 1.38-0.314 1.631-0.471s0.941-0.282 1.506-0.282c0.878 0 1.004 0.094 1.004 0.784zM17.569 28.204c0 0.878-0.753 1.349-2.071 1.224-1.474-0.125-1.694-0.69-0.533-1.318 1.286-0.69 2.604-0.659 2.604 0.094z"></path>
<path d="M13.396 6.274c-1.506 0.816-2.29 1.6-3.075 3.137-0.439 0.816-0.596 1.537-0.471 2.039 0.345 1.412 1.443 0.784 1.443-0.816 0-0.816 2.635-3.42 3.451-3.42 0.376 0 0.973-0.157 1.318-0.345 0.659-0.345 0.659-0.376 0.094-0.784-0.784-0.596-1.38-0.565-2.761 0.188z"></path>
</svg>
