<?xml version="1.0" encoding="utf-8"?>
<!-- Generated by IcoMoon.io -->
<!DOCTYPE svg PUBLIC "-//W3C//DTD SVG 1.1//EN" "http://www.w3.org/Graphics/SVG/1.1/DTD/svg11.dtd">
<svg version="1.1" xmlns="http://www.w3.org/2000/svg" xmlns:xlink="http://www.w3.org/1999/xlink" width="32" height="32" viewBox="0 0 32 32">
<path d="M7.216 2.667v1.412h-2.541c-2.196 0-2.635 0.094-3.294 0.69l-0.753 0.722v24.282l0.847 0.816 0.878 0.784h26.792l0.816-0.784 0.784-0.816v-24.282l-0.753-0.722c-0.659-0.596-1.098-0.69-3.294-0.69h-2.541v-1.412c0-1.349-0.031-1.412-0.941-1.412s-0.941 0.063-0.941 1.412v1.412h-5.647v-1.412c0-1.349-0.031-1.412-0.941-1.412s-0.941 0.063-0.941 1.412v1.412h-5.647v-1.412c0-1.349-0.031-1.412-0.941-1.412s-0.941 0.063-0.941 1.412zM7.216 7.373c0 1.349 0.031 1.412 0.941 1.412s0.941-0.063 0.941-1.412v-1.412h5.647v1.412c0 1.349 0.031 1.412 0.941 1.412s0.941-0.063 0.941-1.412v-1.412h5.647v1.412c0 1.349 0.031 1.412 0.941 1.412s0.941-0.063 0.941-1.412v-1.443l4.549 0.188v23.216h-26.039l-0.094-11.294c-0.031-6.212 0-11.482 0.094-11.671 0.094-0.282 0.878-0.408 2.353-0.408h2.196v1.412z"></path>
<path d="M7.216 13.961v1.412h3.765v-2.824h-3.765v1.412z"></path>
<path d="M13.804 13.961v1.412h3.765v-2.824h-3.765v1.412z"></path>
<path d="M20.392 13.961v1.412h3.765v-2.824h-3.765v1.412z"></path>
<path d="M7.216 18.667v1.412h3.765v-2.824h-3.765v1.412z"></path>
<path d="M13.804 18.667v1.412h3.765v-2.824h-3.765v1.412z"></path>
<path d="M20.392 18.667v1.412h3.765v-2.824h-3.765v1.412z"></path>
<path d="M7.216 23.373v1.412h3.765v-2.824h-3.765v1.412z"></path>
<path d="M13.804 23.373v1.412h3.765v-2.824h-3.765v1.412z"></path>
<path d="M20.392 23.373v1.412h3.765v-2.824h-3.765v1.412z"></path>
</svg>
