<?xml version="1.0" encoding="utf-8"?>
<!-- Generated by IcoMoon.io -->
<!DOCTYPE svg PUBLIC "-//W3C//DTD SVG 1.1//EN" "http://www.w3.org/Graphics/SVG/1.1/DTD/svg11.dtd">
<svg version="1.1" xmlns="http://www.w3.org/2000/svg" xmlns:xlink="http://www.w3.org/1999/xlink" width="32" height="32" viewBox="0 0 32 32">
<path d="M8.747 5.272c-0.457 0.457-0.823 0.945-0.823 1.097 0 0.122-0.274 0.823-0.61 1.554-0.61 1.31-0.61 1.31-2.804 1.707-1.615 0.274-2.469 0.579-3.048 1.128l-0.853 0.792v15.665l1.585 1.89h25.966l1.707-1.646v-15.909l-0.823-0.792c-0.61-0.549-1.463-0.853-3.078-1.128-2.194-0.396-2.194-0.396-2.804-1.707-0.335-0.731-0.61-1.463-0.61-1.615 0-0.122-0.396-0.61-0.853-1.067l-0.853-0.823h-11.276l-0.823 0.853zM20.602 6.766c0.274 0.853 1.067 2.926 1.31 3.444 0.305 0.579 2.164 1.219 4.297 1.493l1.676 0.183v15.238h-25.295v-15.238l1.676-0.213c2.194-0.274 3.992-0.884 4.297-1.463 0.244-0.518 1.036-2.59 1.31-3.444 0.152-0.457 0.67-0.518 5.364-0.518s5.211 0.061 5.364 0.518z"></path>
<path d="M12.19 11.459c-4.724 2.499-5.76 8.198-2.133 11.825 4.571 4.571 12.495 1.31 12.495-5.15 0-2.865-1.554-5.333-4.297-6.705-1.524-0.792-4.541-0.762-6.065 0.030zM17.31 13.166c2.895 1.31 4.145 4.389 2.895 7.040-1.341 2.895-4.663 4.236-7.223 2.865-2.895-1.554-4.023-4.663-2.651-7.345 1.371-2.651 4.389-3.779 6.979-2.56z"></path>
<path d="M12.648 15.543c-0.853 0.884-1.067 1.31-1.006 2.072 0.122 1.25 0.823 1.432 1.036 0.274 0.213-1.097 1.158-2.042 2.347-2.316 1.097-0.274 0.914-0.914-0.305-1.036-0.762-0.061-1.189 0.152-2.072 1.006z"></path>
</svg>
