<?xml version="1.0" encoding="utf-8"?>
<!-- Generated by IcoMoon.io -->
<!DOCTYPE svg PUBLIC "-//W3C//DTD SVG 1.1//EN" "http://www.w3.org/Graphics/SVG/1.1/DTD/svg11.dtd">
<svg version="1.1" xmlns="http://www.w3.org/2000/svg" xmlns:xlink="http://www.w3.org/1999/xlink" width="32" height="32" viewBox="0 0 32 32">
<path d="M5.929 1.757c-0.408 0.502-1.129 2.227-1.443 3.42-0.063 0.376-0.565 0.941-1.067 1.255-0.847 0.596-0.91 0.753-0.91 2.855 0 2.478 0.471 3.263 1.976 3.263 0.753 0 0.847 0.126 0.847 1.035 0 0.565 0.157 1.82 0.314 2.761 0.188 0.941 0.439 3.169 0.596 4.988 0.471 5.522 1.035 8.91 1.537 9.475 0.439 0.502 1.224 0.565 7.906 0.565s7.467-0.063 7.906-0.565c0.533-0.565 1.067-3.89 1.506-9.286 0.157-1.851 0.439-4.173 0.627-5.145 0.157-0.973 0.314-2.227 0.314-2.792 0-0.941 0.094-1.035 0.878-1.035 1.443 0 1.945-0.847 1.945-3.2 0-1.882-0.094-2.133-0.878-2.824-0.502-0.408-0.973-1.035-1.098-1.349-0.094-0.345-0.376-1.129-0.596-1.757-0.847-2.29-0.251-2.165-10.604-2.165-8.22 0-9.38 0.063-9.757 0.502zM24.565 4.11c1.098 1.914 1.443 1.851-8.878 1.851s-9.976 0.063-8.847-1.851l0.533-0.973h16.627l0.565 0.973zM26.98 9.255v1.412h-22.588v-2.824h22.588v1.412zM24.094 13.867l-0.094 1.349h-16.627l-0.094-1.349-0.094-1.318h17.004l-0.094 1.318zM23.686 16.69c0.094 0.094 0.031 0.565-0.125 1.067s-0.408 2.416-0.502 4.267c-0.125 1.882-0.345 3.388-0.502 3.42-0.157 0-3.231 0.031-6.871 0.031s-6.714-0.031-6.871-0.031c-0.157-0.031-0.376-1.537-0.502-3.42-0.094-1.851-0.345-3.765-0.502-4.267-0.157-0.565-0.188-1.004 0-1.098 0.345-0.22 15.686-0.188 15.875 0.031zM22.4 27.357c0 0.314-0.031 0.91-0.063 1.349l-0.063 0.784h-13.082l-0.188-1.161c-0.126-0.627-0.126-1.224-0.063-1.349 0.094-0.125 3.137-0.22 6.808-0.188 6.149 0.031 6.682 0.063 6.651 0.565z"></path>
</svg>
