<?xml version="1.0" encoding="utf-8"?>
<!-- Generated by IcoMoon.io -->
<!DOCTYPE svg PUBLIC "-//W3C//DTD SVG 1.1//EN" "http://www.w3.org/Graphics/SVG/1.1/DTD/svg11.dtd">
<svg version="1.1" xmlns="http://www.w3.org/2000/svg" xmlns:xlink="http://www.w3.org/1999/xlink" width="32" height="32" viewBox="0 0 32 32">
<path d="M19.137 3.702c-1.788 0.878-2.227 1.255-9.914 8.816-4.141 4.11-7.624 7.812-7.969 8.502-1.631 3.169-0.125 7.153 3.357 8.91 1.318 0.659 4.047 0.627 5.333-0.063 1.129-0.596 14.306-13.553 15.969-15.686 0.753-0.973 1.067-1.694 1.067-2.478 0-2.259-2.51-4.8-4.737-4.8-1.6 0-3.075 1.129-8.973 6.996-4.486 4.455-5.835 6.18-4.831 6.18 0.157 0 0.502 0.063 0.722 0.157 0.251 0.094 2.667-2.071 6.212-5.647 5.365-5.396 5.867-5.804 6.902-5.804 1.506 0 2.824 1.318 2.824 2.855 0.031 0.973-0.533 1.6-7.122 8.094-3.922 3.859-7.718 7.435-8.376 7.937-2.133 1.537-4.612 0.91-6.306-1.569-0.973-1.412-1.004-2.918-0.126-4.424 0.376-0.627 3.953-4.361 7.937-8.282 8.784-8.69 9.882-9.318 13.427-7.78 3.514 1.506 5.208 5.271 3.796 8.408-0.314 0.722-2.886 3.576-6.306 7.027-5.208 5.271-5.773 5.929-5.584 6.682 0.094 0.439 0.376 0.816 0.596 0.816s3.106-2.729 6.4-6.055c6.526-6.588 7.31-7.749 7.31-10.698 0-3.42-2.071-6.62-5.176-8-1.82-0.816-4.831-0.847-6.431-0.094z"></path>
</svg>
