<?xml version="1.0" encoding="utf-8"?>
<!-- Generated by IcoMoon.io -->
<!DOCTYPE svg PUBLIC "-//W3C//DTD SVG 1.1//EN" "http://www.w3.org/Graphics/SVG/1.1/DTD/svg11.dtd">
<svg version="1.1" xmlns="http://www.w3.org/2000/svg" xmlns:xlink="http://www.w3.org/1999/xlink" width="32" height="32" viewBox="0 0 32 32">
<path d="M9.82 1.851c-0.408 0.345-0.722 0.941-0.722 1.349 0 0.376-0.22 1.506-0.471 2.447s-0.471 2.196-0.471 2.792c0 0.659-0.314 1.443-0.878 2.196-2.541 3.263-2.573 7.969-0.094 11.294 0.533 0.69 0.878 1.663 1.004 2.824 0.314 2.855 0.973 5.49 1.474 6.055 0.408 0.502 1.098 0.565 5.082 0.565s4.675-0.063 5.082-0.533c0.502-0.596 1.161-3.231 1.474-6.086 0.125-1.192 0.471-2.102 1.004-2.824 0.439-0.596 1.004-1.6 1.192-2.259 0.22-0.659 0.627-1.286 0.941-1.38 0.973-0.345 1.6-1.129 1.6-1.976s-0.627-1.631-1.6-1.976c-0.314-0.094-0.722-0.722-0.91-1.38-0.22-0.659-0.565-1.412-0.784-1.663-0.816-1.004-1.412-2.541-1.412-3.733 0-1.663-0.878-5.082-1.506-5.773-0.408-0.471-1.067-0.533-4.894-0.533-3.859 0.031-4.518 0.094-5.114 0.596zM18.824 4.298c0.157 0.659 0.408 1.726 0.502 2.353 0.188 1.035 0.125 1.192-0.376 1.192-0.345-0.031-0.941-0.22-1.38-0.471s-1.6-0.439-2.667-0.439c-1.067 0-2.227 0.188-2.667 0.439-0.878 0.502-2.196 0.627-2.196 0.188 0-0.157 0.22-0.878 0.471-1.6s0.471-1.663 0.471-2.071c0-0.753 0-0.753 3.765-0.753h3.733l0.345 1.161zM17.663 9.412c6.086 2.698 6.086 11.106 0 13.804-6.055 2.667-12.486-3.765-9.82-9.82 1.726-3.859 6.086-5.616 9.82-3.984zM12.078 25.318c0.941 0.627 4.204 0.533 5.647-0.22 0.722-0.376 1.349-0.502 1.506-0.345s0.063 1.192-0.282 2.51l-0.565 2.227h-7.278l-0.565-2.196c-0.282-1.192-0.471-2.322-0.345-2.478 0.188-0.345 0.91-0.157 1.882 0.502z"></path>
<path d="M14.024 9.914c-0.126 0.126-0.22 0.565-0.22 0.973 0 0.596 0.157 0.722 0.973 0.722 0.847 0 0.941-0.094 0.847-0.878-0.094-0.816-1.067-1.349-1.6-0.816z"></path>
<path d="M10.039 12.392c0 0.973 0.816 1.349 1.474 0.69s0.282-1.474-0.69-1.474c-0.627 0-0.784 0.157-0.784 0.784z"></path>
<path d="M17.631 12.518c-0.565 0.502-1.631 1.38-2.384 1.945-1.945 1.474-2.196 2.792-0.565 2.792 0.627-0.031 1.129-0.376 1.914-1.412 0.565-0.784 1.443-1.851 1.945-2.416 1.6-1.82 0.91-2.51-0.91-0.91z"></path>
<path d="M8.282 15.843c-0.314 0.784 0.126 1.412 0.973 1.412 0.659 0 0.784-0.157 0.784-0.941s-0.126-0.941-0.784-0.941c-0.439 0-0.878 0.22-0.973 0.471z"></path>
<path d="M19.451 16.314c0 0.878 0.094 0.973 0.878 0.878 0.659-0.063 0.847-0.251 0.847-0.878s-0.188-0.816-0.847-0.878c-0.784-0.094-0.878 0-0.878 0.878z"></path>
<path d="M10.259 19.357c-0.126 0.094-0.22 0.533-0.22 0.941 0 0.565 0.157 0.722 0.784 0.722 0.439 0 0.878-0.22 0.973-0.471 0.345-0.847-0.941-1.82-1.537-1.192z"></path>
<path d="M17.882 19.576c-0.565 0.69-0.157 1.443 0.784 1.443 0.722 0 0.816-0.125 0.722-0.847-0.094-1.004-0.91-1.286-1.506-0.596z"></path>
<path d="M13.867 21.867c0.063 0.69 0.251 0.878 0.878 0.878s0.816-0.188 0.878-0.878c0.094-0.753 0-0.847-0.878-0.847s-0.973 0.094-0.878 0.847z"></path>
</svg>
