<?xml version="1.0" encoding="utf-8"?>
<!-- Generated by IcoMoon.io -->
<!DOCTYPE svg PUBLIC "-//W3C//DTD SVG 1.1//EN" "http://www.w3.org/Graphics/SVG/1.1/DTD/svg11.dtd">
<svg version="1.1" xmlns="http://www.w3.org/2000/svg" xmlns:xlink="http://www.w3.org/1999/xlink" width="32" height="32" viewBox="0 0 32 32">
<path d="M13.067 6.43c-1.037 0.504-1.956 1.274-2.667 2.193-1.007 1.333-1.156 1.422-2.489 1.422-1.215 0.030-1.541 0.178-2.578 1.215-1.067 1.067-1.185 1.333-1.185 2.607 0 1.096-0.148 1.57-0.622 2.015-1.333 1.185-2.044 2.696-2.044 4.356 0 2.43 1.067 4.207 3.2 5.274 0.978 0.504 1.926 0.563 10.756 0.563 10.696 0 10.548 0.030 12.533-1.956 1.481-1.481 1.956-2.637 1.956-4.711 0-2.785-1.452-5.007-4.089-6.193-0.741-0.356-1.244-0.77-1.244-1.067 0-0.741-0.859-2.341-1.985-3.763-2.163-2.696-6.252-3.526-9.541-1.956zM18.785 8c0.711 0.326 1.659 0.978 2.133 1.452 0.948 1.007 1.867 3.052 1.867 4.237 0.030 0.622 0.178 0.83 0.622 0.83 1.037 0 2.874 1.126 3.763 2.281 1.215 1.57 1.185 3.733-0.059 5.304-1.778 2.163-1.867 2.193-11.822 2.193-8.415 0-8.889-0.030-9.837-0.622-0.533-0.326-1.244-1.037-1.57-1.57-1.126-1.807-0.681-3.319 1.57-5.274 1.037-0.919 1.096-1.037 0.77-1.867-0.415-1.126-0.178-1.926 0.8-2.637 0.652-0.474 0.948-0.533 1.896-0.267 1.007 0.267 1.215 0.207 1.748-0.356 0.326-0.356 0.593-0.77 0.593-0.948 0-0.148 0.444-0.711 0.978-1.244 2.163-2.104 4.237-2.578 6.548-1.511z"></path>
</svg>
