<?xml version="1.0" encoding="utf-8"?>
<!-- Generated by IcoMoon.io -->
<!DOCTYPE svg PUBLIC "-//W3C//DTD SVG 1.1//EN" "http://www.w3.org/Graphics/SVG/1.1/DTD/svg11.dtd">
<svg version="1.1" xmlns="http://www.w3.org/2000/svg" xmlns:xlink="http://www.w3.org/1999/xlink" width="32" height="32" viewBox="0 0 32 32">
<path d="M9.726 1.788c-2.792 0.659-5.208 1.882-6.306 3.2l-0.91 1.129v20.392l0.91 1.098c4.141 5.020 20.392 5.020 24.533 0.031l0.91-1.129v-10.102c0-9.945 0-10.165-0.69-11.2-0.878-1.349-3.671-2.761-6.839-3.451-2.918-0.627-8.784-0.627-11.608 0.031zM21.176 3.765c2.008 0.502 4.204 1.474 5.114 2.29 2.792 2.541-2.855 5.396-10.604 5.396-6.024 0-11.294-1.82-11.294-3.922 0-1.569 2.322-3.012 6.118-3.765 1.035-0.22 2.039-0.439 2.196-0.502 0.659-0.251 6.965 0.126 8.471 0.502zM6.526 11.89c3.137 1.631 10.761 2.133 15.153 1.004 2.353-0.627 4.204-1.412 4.518-1.945 0.439-0.69 0.784 0.188 0.784 2.039 0 1.757-0.094 2.008-0.847 2.573-4.173 3.012-16.251 3.012-20.706 0.031-0.973-0.659-1.035-0.784-1.035-2.604 0-2.133 0.188-2.51 0.91-1.882 0.282 0.22 0.816 0.596 1.224 0.784zM9.255 18.698c1.506 0.471 2.855 0.596 6.776 0.596 3.169 0 5.051-0.125 5.333-0.345 0.251-0.22 0.941-0.471 1.537-0.596 1.192-0.251 2.447-0.941 3.043-1.663 0.659-0.784 1.035-0.063 1.035 1.945 0 1.788-0.063 2.008-0.941 2.635-0.502 0.376-1.098 0.69-1.349 0.69-0.22 0-0.533 0.125-0.722 0.282-1.412 1.443-14.808 1.443-16.282 0-0.157-0.157-0.533-0.282-0.816-0.282-0.314 0-0.973-0.376-1.506-0.816-0.878-0.722-0.973-0.973-0.973-2.604 0-1.004 0.094-1.882 0.188-1.976 0.094-0.125 0.753 0.188 1.474 0.659 0.722 0.502 2.165 1.161 3.2 1.474zM9.255 24.345c1.506 0.471 2.855 0.596 6.776 0.596 3.169 0 5.051-0.125 5.333-0.345 0.251-0.22 0.941-0.471 1.537-0.596 1.192-0.251 2.447-0.941 3.043-1.663 0.627-0.784 1.035-0.094 1.035 1.82 0 1.663-0.094 1.882-1.035 2.729-3.984 3.482-16.784 3.388-20.674-0.188-0.753-0.659-0.878-1.004-0.878-2.541 0-0.973 0.094-1.851 0.188-1.945 0.094-0.125 0.753 0.188 1.474 0.659 0.722 0.502 2.165 1.161 3.2 1.474z"></path>
<path d="M23.435 13.678c-0.125 0.126-0.22 0.565-0.22 0.973 0 0.659 0.125 0.753 0.878 0.659 0.659-0.063 0.847-0.251 0.847-0.878 0-0.565-0.188-0.816-0.627-0.878-0.376-0.063-0.753 0-0.878 0.126z"></path>
<path d="M23.435 19.326c-0.125 0.125-0.22 0.565-0.22 0.973 0 0.659 0.125 0.753 0.878 0.659 0.659-0.063 0.847-0.251 0.847-0.878 0-0.565-0.188-0.816-0.627-0.878-0.376-0.063-0.753 0-0.878 0.125z"></path>
<path d="M23.435 24.973c-0.125 0.125-0.22 0.565-0.22 0.973 0 0.659 0.125 0.753 0.878 0.659 0.659-0.063 0.847-0.251 0.847-0.878 0-0.565-0.188-0.816-0.627-0.878-0.376-0.063-0.753 0-0.878 0.125z"></path>
</svg>
