<?xml version="1.0" encoding="utf-8"?>
<!-- Generated by IcoMoon.io -->
<!DOCTYPE svg PUBLIC "-//W3C//DTD SVG 1.1//EN" "http://www.w3.org/Graphics/SVG/1.1/DTD/svg11.dtd">
<svg version="1.1" xmlns="http://www.w3.org/2000/svg" xmlns:xlink="http://www.w3.org/1999/xlink" width="32" height="32" viewBox="0 0 32 32">
<path d="M3.576 7.906c-2.102 2.102-2.949 3.137-2.949 3.671 0 0.878 2.071 3.357 7.435 8.816 1.914 1.976 4.267 4.424 5.176 5.396 2.196 2.353 2.698 2.353 4.894 0.031 0.91-1.004 3.2-3.388 5.051-5.271 5.647-5.741 7.561-8.031 7.561-8.941 0-0.659-0.69-1.506-2.98-3.733l-2.949-2.855h-18.29l-2.949 2.886zM10.98 7.341c0 0.533-1.129 0.847-2.102 0.627-0.816-0.22-0.941 0.22-0.251 0.816 0.439 0.345 0.345 0.565-0.784 1.631-1.224 1.098-1.443 1.192-3.169 1.192-1.004 0-1.851-0.094-1.851-0.22 0-0.094 0.847-1.035 1.914-2.039 1.506-1.443 2.071-1.788 2.635-1.631 0.471 0.125 0.753 0 0.878-0.314 0.251-0.659 2.729-0.722 2.729-0.063zM14.18 8.533c0.69 0.69 0.69 0.753-0.063 1.506-0.816 0.816-1.726 0.784-2.573-0.063s-0.784-1.694 0.157-2.478c0.753-0.596 0.784-0.565 2.478 1.035zM17.474 7.373c0.063 0.188-0.314 0.502-0.847 0.722-0.784 0.345-1.098 0.345-1.882 0-0.973-0.408-1.098-0.596-0.722-1.004 0.345-0.314 3.325-0.094 3.451 0.282zM20.455 8.627c0.125 0.753-1.098 2.039-1.976 2.039-0.533 0-1.851-1.004-1.851-1.443 0-0.094 0.533-0.627 1.161-1.224 1.098-1.004 1.161-1.035 1.851-0.533 0.408 0.314 0.753 0.816 0.816 1.161zM23.122 7.404c0.125 0.314 0.408 0.439 0.847 0.314 0.533-0.125 1.129 0.251 2.604 1.663 1.067 1.004 1.851 1.914 1.757 2.039-0.125 0.094-0.973 0.188-1.914 0.188-1.569 0-1.82-0.094-2.918-1.224-1.067-1.035-1.161-1.255-0.753-1.6 0.69-0.565 0.565-1.035-0.22-0.847-0.973 0.251-2.133-0.063-2.133-0.596 0-0.659 2.478-0.596 2.729 0.063zM10.761 10.353c1.161 0.565 0.91 1.067-0.533 1.192-1.914 0.157-2.259-0.126-1.38-1.035 0.376-0.408 0.784-0.722 0.878-0.69s0.533 0.282 1.035 0.533zM22.526 10.51c0.878 0.91 0.533 1.192-1.38 1.035-1.443-0.126-1.631-0.565-0.502-1.255 1.098-0.659 1.035-0.659 1.882 0.22zM16.471 10.416c0.439 0.188 0.753 0.502 0.69 0.69-0.157 0.439-2.792 0.439-2.949 0-0.094-0.251 0.627-0.784 1.38-1.035 0.031-0.031 0.439 0.126 0.878 0.345zM7.278 13.647c0.314 0.502 0.69 1.224 0.878 1.569 0.471 0.91 1.004 1.757 1.976 3.012 0.471 0.627 0.847 1.38 0.847 1.631 0 0.282 0.251 0.533 0.565 0.596 0.376 0.063 0.408 0.188 0.157 0.345s-1.255-0.69-2.824-2.322c-1.349-1.412-3.106-3.2-3.922-3.984s-1.412-1.537-1.318-1.694c0.094-0.157 0.816-0.251 1.631-0.188 1.192 0.094 1.506 0.251 2.008 1.035zM12.173 12.831c0.251 0.157 0.471 1.004 0.533 1.945s0.345 2.384 0.596 3.263c0.282 0.847 0.565 1.945 0.659 2.416 0.094 0.502 0.314 0.878 0.502 0.878 0.439 0 0.188-3.639-0.439-6.274-0.251-1.098-0.408-2.133-0.345-2.259 0.094-0.126 1.004-0.251 2.008-0.251s1.914 0.126 2.008 0.251c0.063 0.126-0.094 1.161-0.345 2.259-0.627 2.635-0.878 6.274-0.439 6.274 0.188 0 0.408-0.376 0.502-0.878 0.094-0.471 0.376-1.474 0.596-2.259 0.251-0.784 0.565-2.259 0.69-3.294s0.376-1.976 0.565-2.102c0.502-0.345 3.953-0.314 3.953 0.031 0 0.188-0.408 0.91-0.91 1.663s-1.224 1.914-1.569 2.604c-0.376 0.69-0.816 1.474-0.941 1.726-0.157 0.251-0.533 1.035-0.847 1.726-0.345 0.69-0.784 1.38-0.973 1.506-0.22 0.125-0.408 0.471-0.408 0.722 0 0.627-0.847 0.91-1.412 0.439-0.376-0.314-0.565-0.314-0.941 0-0.565 0.471-1.412 0.188-1.412-0.439 0-0.251-0.188-0.596-0.376-0.722-0.22-0.125-1.098-1.6-1.945-3.231-0.816-1.631-1.914-3.576-2.416-4.329s-0.91-1.475-0.91-1.663c0-0.345 3.451-0.376 4.016 0zM27.733 12.8c0.094 0.157-0.502 0.91-1.318 1.694s-2.573 2.573-3.922 3.984c-1.569 1.631-2.573 2.478-2.824 2.322s-0.22-0.282 0.188-0.345c0.282-0.063 0.533-0.314 0.533-0.565 0-0.408 1.067-2.196 1.6-2.635 0.094-0.094 0.282-0.376 0.376-0.627 0.125-0.251 0.502-0.91 0.847-1.412 0.345-0.533 0.722-1.161 0.816-1.412 0.125-0.251 0.345-0.659 0.533-0.878 0.345-0.408 2.918-0.533 3.169-0.126z"></path>
</svg>
