<?xml version="1.0" encoding="utf-8"?>
<!-- Generated by IcoMoon.io -->
<!DOCTYPE svg PUBLIC "-//W3C//DTD SVG 1.1//EN" "http://www.w3.org/Graphics/SVG/1.1/DTD/svg11.dtd">
<svg version="1.1" xmlns="http://www.w3.org/2000/svg" xmlns:xlink="http://www.w3.org/1999/xlink" width="32" height="32" viewBox="0 0 32 32">
<path d="M11.451 7.498c-2.353 0.659-4.926 1.945-6.651 3.357-1.757 1.443-4.173 4.612-4.173 5.459 0 0.941 2.573 4.204 4.518 5.678 0.878 0.659 1.757 1.38 1.976 1.537 0.22 0.188 0.471 0.314 0.596 0.314 0.094 0 0.627 0.188 1.161 0.439 4.235 1.851 9.38 1.851 13.616 0 0.533-0.251 1.067-0.439 1.161-0.439 0.125 0 0.376-0.125 0.596-0.314 0.22-0.157 1.098-0.878 1.976-1.537 1.945-1.474 4.518-4.737 4.518-5.678 0-0.91-1.035-2.322-3.325-4.549-4.204-4.11-10.478-5.804-15.969-4.267zM19.765 9.38c3.075 1.098 4.58 2.071 6.996 4.486 0.973 1.035 1.788 2.133 1.788 2.478 0 0.627-2.949 3.765-4.549 4.831-0.941 0.627-2.071 1.224-4.329 2.165-2.478 1.067-7.498 0.502-10.573-1.129-2.635-1.412-6.274-4.831-6.274-5.867 0-0.659 2.949-3.827 4.549-4.894 3.89-2.604 8.627-3.388 12.392-2.071z"></path>
<path d="M12.925 10.353c-2.604 1.443-3.796 3.075-4.047 5.49-0.188 1.757 0.439 3.482 1.726 4.863 1.129 1.192 3.42 2.196 5.051 2.196 3.576 0 6.933-3.169 6.933-6.588 0-4.549-5.804-8.126-9.663-5.961zM18.259 11.608c3.043 1.914 3.639 5.804 1.255 8.533-0.722 0.847-2.824 1.82-3.922 1.82-1.38-0.031-3.357-1.224-4.361-2.698-1.443-2.071-1.098-5.271 0.753-6.902 2.259-2.008 3.984-2.196 6.275-0.753z"></path>
<path d="M13.459 13.239c-1.224 1.035-1.851 2.196-1.631 3.012 0.22 0.91 0.941 0.878 1.224-0.031 0.408-1.286 1.349-2.322 2.353-2.541 1.192-0.22 1.067-0.941-0.22-1.067-0.596-0.031-1.192 0.188-1.726 0.627z"></path>
</svg>
