<?xml version="1.0" encoding="utf-8"?>
<!-- Generated by IcoMoon.io -->
<!DOCTYPE svg PUBLIC "-//W3C//DTD SVG 1.1//EN" "http://www.w3.org/Graphics/SVG/1.1/DTD/svg11.dtd">
<svg version="1.1" xmlns="http://www.w3.org/2000/svg" xmlns:xlink="http://www.w3.org/1999/xlink" width="32" height="32" viewBox="0 0 32 32">
<path d="M6.274 2.165c0 0.502 0.22 1.318 0.471 1.788 0.627 1.192 0.627 6.714 0.031 9.318-0.91 3.827-1.443 7.31-1.443 9.192 0 3.765 2.259 6.965 5.867 8.345 1.882 0.69 6.557 0.753 8.408 0.094 0.69-0.251 1.506-0.471 1.788-0.471s1.192-0.659 2.039-1.506c1.788-1.726 2.604-4.047 2.604-7.31 0-1.882-0.784-5.396-1.506-6.745-0.188-0.314-0.408-0.816-0.533-1.067-0.094-0.251-0.345-0.753-0.565-1.098s-0.659-1.098-0.941-1.663-1.192-1.004-1.757 1.192c-0.376 1.474-1.161 2.133-1.412 1.161-0.063-0.188-0.282-1.004-0.502-1.788-0.722-2.573-2.447-5.835-2.855-5.427-0.157 0.157-0.533 1.255-0.847 2.478-0.627 2.447-1.38 3.012-1.976 1.474-1.161-2.824-2.635-5.051-5.114-7.718-1.318-1.412-1.757-1.474-1.757-0.251zM10.447 8.565c0.345 0.722 0.784 1.726 1.035 2.259 0.22 0.502 0.659 1.757 0.973 2.761 0.314 1.035 0.722 1.851 0.878 1.851 0.188 0.031 0.847-1.004 1.474-2.227s1.255-2.259 1.412-2.29c0.596-0.063 1.161 1.976 1.318 4.706 0.094 1.6 0.314 2.918 0.502 2.949 0.157 0.031 1.067-0.973 2.039-2.227 1.694-2.227 1.726-2.259 2.227-1.631 0.816 1.004 1.851 4.8 1.851 6.839 0 2.384-0.941 5.051-2.133 6.055-2.196 1.82-7.592 2.478-10.29 1.224-3.169-1.412-4.518-3.482-4.518-6.902 0-2.039 0.188-3.169 1.443-8.157 0.251-0.941 0.439-2.824 0.439-4.141 0-2.792 0.439-3.169 1.349-1.067z"></path>
<path d="M9.631 16.533c-0.314 1.004-0.565 3.012-0.627 4.486-0.063 2.29 0 2.667 0.502 2.761 0.471 0.094 0.533-0.188 0.533-2.886 0-1.631 0.126-3.043 0.282-3.137 0.345-0.22 1.6 2.259 1.6 3.2 0 1.286 1.38 1.192 1.914-0.125 0.439-1.224 1.161-0.91 1.569 0.659 0.22 0.847 0.533 1.412 0.816 1.412 0.533 0 1.851-0.816 2.918-1.82 2.039-1.882 2.667-1.38 1.631 1.349-1.004 2.573-0.22 3.702 0.941 1.38 0.533-1.098 0.722-3.514 0.376-5.239-0.188-0.878-0.282-0.941-0.847-0.659-0.345 0.188-0.941 0.659-1.286 1.035-0.376 0.345-1.129 1.004-1.694 1.38-1.004 0.722-1.067 0.722-1.663 0.188-0.345-0.314-0.596-0.941-0.596-1.506 0-1.38-0.314-2.384-0.753-2.384-0.188 0-0.627 0.659-0.973 1.412-0.69 1.569-1.318 1.726-1.945 0.471-0.722-1.506-1.349-3.075-1.349-3.42 0-0.188-0.188-0.345-0.408-0.345-0.251 0-0.659 0.753-0.941 1.788z"></path>
</svg>
