<?xml version="1.0" encoding="utf-8"?>
<!-- Generated by IcoMoon.io -->
<!DOCTYPE svg PUBLIC "-//W3C//DTD SVG 1.1//EN" "http://www.w3.org/Graphics/SVG/1.1/DTD/svg11.dtd">
<svg version="1.1" xmlns="http://www.w3.org/2000/svg" xmlns:xlink="http://www.w3.org/1999/xlink" width="32" height="32" viewBox="0 0 32 32">
<path d="M15.592 1.129c-0.126 0.125-0.22 0.816-0.22 1.506 0 0.722-0.22 1.569-0.471 1.882-0.596 0.816-0.627 3.451-0.031 3.922 0.376 0.314 0.533 0.251 0.784-0.251 0.188-0.345 0.345-1.035 0.345-1.537s0.22-1.349 0.502-1.882c0.878-1.788 0.157-4.706-0.91-3.639z"></path>
<path d="M8.973 5.522c-0.094 0.282-0.188 0.91-0.188 1.412s-0.188 1.255-0.439 1.631c-0.439 0.659-0.596 1.757-0.533 3.294 0.031 0.565 0.188 0.722 0.753 0.627 0.565-0.063 0.722-0.314 0.784-1.349 0.063-0.69 0.282-1.694 0.533-2.259 0.565-1.192 0.596-2.98 0.094-3.482s-0.784-0.471-1.004 0.125z"></path>
<path d="M20.298 5.208c-0.125 0.125-0.22 0.816-0.22 1.569 0 0.722-0.22 1.725-0.471 2.196-0.502 0.973-0.565 1.757-0.282 2.855 0.376 1.38 1.38 0.659 1.38-0.973 0-0.408 0.22-1.161 0.502-1.694 0.627-1.255 0.502-3.953-0.188-4.078-0.282-0.031-0.596 0-0.722 0.125z"></path>
<path d="M13.961 12.455c-0.502 0.063-1.38 0.345-1.945 0.596-0.533 0.22-1.067 0.439-1.192 0.439-0.094 0-0.376 0.188-0.627 0.376-0.22 0.22-0.878 0.753-1.412 1.192-1.192 0.878-2.165 2.384-2.949 4.455l-0.565 1.506h-1.631c-1.318 0-1.788 0.157-2.322 0.722-1.192 1.255-0.91 2.322 1.192 4.58 1.318 1.412 1.882 2.29 1.882 2.855 0 0.471 0.314 1.129 0.722 1.506 0.722 0.69 0.91 0.69 10.604 0.69h9.914l0.659-0.722c0.376-0.408 0.69-1.098 0.69-1.506 0-0.533 0.627-1.474 1.882-2.824 2.133-2.29 2.416-3.451 1.161-4.612-0.565-0.533-1.129-0.69-2.51-0.69-2.573 0-2.322-0.659 0.722-1.914 2.259-0.973 2.51-1.161 2.51-1.945 0-0.753-0.125-0.847-1.067-0.847-0.565 0-1.224 0.22-1.443 0.471s-0.565 0.471-0.784 0.471c-0.22 0-0.565 0.22-0.784 0.471-0.659 0.784-1.851 0.596-2.29-0.408-0.565-1.286-1.914-2.667-3.263-3.325-0.659-0.314-1.537-0.753-1.976-0.973-0.878-0.439-3.733-0.753-5.176-0.565zM18.51 13.961c0.22 0.251 0.659 0.471 0.973 0.471 0.627 0 0.878 0.157 3.2 2.322 1.38 1.318 1.757 2.008 1.255 2.478-0.22 0.251-1.663-0.973-1.663-1.412 0-0.345-1.192-1.506-1.537-1.506-0.157 0-0.345-0.22-0.471-0.471-0.094-0.251-0.502-0.471-0.941-0.471-0.408 0-0.816-0.22-0.941-0.471-0.125-0.376-0.753-0.471-2.698-0.471s-2.573 0.094-2.698 0.471c-0.126 0.251-0.533 0.471-0.941 0.471-0.439 0-0.847 0.22-0.941 0.471-0.126 0.251-0.314 0.471-0.471 0.471-0.376 0-1.537 1.161-1.537 1.537 0 0.157-0.22 0.345-0.471 0.471-0.565 0.22-0.659 1.882-0.063 1.694 0.188-0.094 0.439-0.408 0.502-0.722 0.126-0.784 2.541-2.98 3.231-2.98 0.314 0 0.659-0.22 0.753-0.471 0.157-0.376 0.753-0.471 2.635-0.471s2.478 0.094 2.635 0.471c0.094 0.251 0.439 0.471 0.753 0.471 0.596 0 3.514 2.573 3.514 3.106 0 0.157-0.188 0.439-0.439 0.627-0.314 0.282-0.533 0.188-0.91-0.345-0.816-1.286-2.071-2.447-2.573-2.447-0.627 0-0.596 0.596 0.063 0.847 0.816 0.314 1.631 1.255 1.851 2.133 0.282 1.161-0.847 1.035-1.537-0.157-0.314-0.533-0.753-0.941-0.973-0.941-0.251 0-0.502-0.22-0.627-0.471-0.251-0.659-3.263-0.659-3.514 0-0.126 0.251-0.408 0.471-0.659 0.471-0.22 0-0.659 0.408-0.941 0.91-0.502 0.816-0.659 0.878-2.322 0.847-1.004 0-1.914-0.125-2.039-0.251s-0.408-0.094-0.659 0.125c-0.314 0.251-0.533 0.251-0.816-0.031-0.282-0.314-0.251-0.471 0.188-0.784 0.282-0.22 0.533-0.69 0.533-1.067 0-0.345 0.22-0.69 0.471-0.816 0.251-0.094 0.471-0.345 0.471-0.565s0.439-0.753 0.973-1.192c0.565-0.439 1.255-1.035 1.569-1.349 0.345-0.282 0.878-0.533 1.255-0.533 0.345 0 0.847-0.22 1.098-0.471 0.345-0.345 1.161-0.471 2.761-0.471 1.663 0 2.416 0.126 2.698 0.471zM18.071 19.922c0.722 0.659 0.753 0.816 0.314 0.973-0.282 0.094-1.004-0.031-1.6-0.314-1.004-0.502-1.192-0.502-2.102-0.063-1.726 0.878-2.384 0.502-1.255-0.722 0.847-0.973 3.545-0.878 4.643 0.125zM28.863 23.184c0 0.157-0.847 1.161-1.882 2.259-1.286 1.38-1.882 2.29-1.945 2.949l-0.094 0.941h-18.51l-0.094-0.941c-0.063-0.659-0.659-1.569-1.945-2.949-1.035-1.098-1.882-2.102-1.882-2.259s5.678-0.282 13.176-0.282c7.498 0 13.176 0.125 13.176 0.282z"></path>
<path d="M13.616 16.784c-0.094 0.251-0.471 0.471-0.784 0.471-0.784 0-2.886 2.133-2.667 2.729 0.188 0.471 0.816 0.282 0.816-0.251 0-0.345 1.161-1.537 1.537-1.537 0.157 0 0.439-0.22 0.659-0.471 0.282-0.345 1.004-0.471 2.573-0.471 1.6 0 2.165-0.094 2.071-0.408-0.094-0.22-0.878-0.408-2.071-0.471-1.537-0.063-2.008 0-2.133 0.408z"></path>
</svg>
