<?xml version="1.0" encoding="utf-8"?>
<!-- Generated by IcoMoon.io -->
<!DOCTYPE svg PUBLIC "-//W3C//DTD SVG 1.1//EN" "http://www.w3.org/Graphics/SVG/1.1/DTD/svg11.dtd">
<svg version="1.1" xmlns="http://www.w3.org/2000/svg" xmlns:xlink="http://www.w3.org/1999/xlink" width="32" height="32" viewBox="0 0 32 32">
<path d="M6.548 4.504c-3.022 1.363-5.067 4.533-5.067 7.793 0 3.2 0.563 4.030 7.081 10.578l5.807 5.867h2.667l5.807-5.867c6.548-6.578 7.081-7.378 7.081-10.489 0-4.741-3.763-8.533-8.444-8.533-1.778 0-4.326 0.8-4.741 1.481-0.089 0.178-0.563 0.296-1.037 0.296s-0.948-0.119-1.037-0.296c-0.089-0.148-0.77-0.563-1.541-0.889-1.807-0.8-4.77-0.77-6.578 0.059zM12.207 6.133c0.711 0.267 1.63 0.859 2.074 1.333 0.444 0.444 1.067 0.83 1.422 0.83s0.978-0.385 1.422-0.83c0.948-1.007 2.933-1.837 4.385-1.837 2.281 0 4.948 1.867 6.015 4.207 1.541 3.407 0.83 4.77-6.015 11.674-2.993 2.993-5.6 5.452-5.807 5.452s-2.815-2.459-5.807-5.452c-5.63-5.659-6.637-7.081-6.637-9.185 0-2.459 1.689-4.889 4.178-6.074 1.6-0.741 3.111-0.77 4.77-0.119z"></path>
<path d="M8.444 8.296c-0.83 0.326-2.222 1.778-2.548 2.637-0.148 0.385-0.207 0.948-0.089 1.274 0.237 0.8 1.126 0.533 1.244-0.356 0.148-1.007 1.481-2.37 2.341-2.37 0.593 0 1.274-0.711 0.948-1.007s-1.393-0.415-1.896-0.178z"></path>
</svg>
