<?xml version="1.0" encoding="utf-8"?>
<!-- Generated by IcoMoon.io -->
<!DOCTYPE svg PUBLIC "-//W3C//DTD SVG 1.1//EN" "http://www.w3.org/Graphics/SVG/1.1/DTD/svg11.dtd">
<svg version="1.1" xmlns="http://www.w3.org/2000/svg" xmlns:xlink="http://www.w3.org/1999/xlink" width="32" height="32" viewBox="0 0 32 32">
<path d="M17.402 1.798c-1.768 0.64-4.328 3.139-5.181 5.059-0.549 1.25-0.64 1.92-0.549 3.657 0.061 1.158 0.183 2.377 0.244 2.651 0.091 0.335-1.798 2.438-5.577 6.278l-5.73 5.79v2.103c0 2.804 0.366 3.139 3.23 3.139 1.981 0 2.164-0.061 2.865-0.914 0.67-0.792 0.945-0.914 2.316-0.914 1.92 0 2.56-0.579 2.56-2.377v-1.28h1.31c1.768 0 2.347-0.64 2.347-2.621 0-1.31 0.122-1.585 1.128-2.499 0.762-0.64 1.28-0.914 1.615-0.762 0.244 0.122 1.463 0.274 2.682 0.335 2.59 0.122 4.236-0.518 6.339-2.438 2.743-2.53 3.688-6.857 2.225-10.179-0.914-2.011-3.413-4.389-5.364-5.090-1.89-0.64-4.632-0.61-6.461 0.061zM23.375 3.566c2.682 1.219 4.663 4.053 4.663 6.705 0 1.554-0.945 3.84-2.103 5.090-1.737 1.89-5.79 2.956-7.223 1.859-1.128-0.853-1.981-0.549-3.688 1.28-1.463 1.615-1.615 1.89-1.615 3.2v1.463h-1.28c-1.707 0-2.377 0.64-2.377 2.347v1.31h-1.463c-1.25 0-1.615 0.152-2.347 0.914-0.701 0.731-1.128 0.914-2.194 0.914h-1.31v-1.25c0-1.219 0.122-1.402 5.943-7.101 6.217-6.126 6.522-6.583 5.486-7.924-1.097-1.432-0.030-5.486 1.859-7.223 2.103-1.95 5.364-2.621 7.65-1.585z"></path>
<path d="M19.749 6.095c-0.64 0.64-1.158 1.402-1.158 1.676 0 0.67 4.053 4.724 4.693 4.724 0.274 0 1.036-0.488 1.707-1.097 1.798-1.615 1.676-2.377-0.67-4.663-2.286-2.255-2.956-2.347-4.571-0.64zM23.528 7.528c0.792 0.792 1.463 1.615 1.463 1.829 0 0.488-1.097 1.615-1.585 1.615-0.427 0-3.291-2.743-3.291-3.139 0-0.488 1.067-1.707 1.524-1.737 0.244 0 1.097 0.64 1.89 1.432z"></path>
</svg>
