<?xml version="1.0" encoding="utf-8"?>
<!-- Generated by IcoMoon.io -->
<!DOCTYPE svg PUBLIC "-//W3C//DTD SVG 1.1//EN" "http://www.w3.org/Graphics/SVG/1.1/DTD/svg11.dtd">
<svg version="1.1" xmlns="http://www.w3.org/2000/svg" xmlns:xlink="http://www.w3.org/1999/xlink" width="32" height="32" viewBox="0 0 32 32">
<path d="M26.729 2.353c-0.376 0.847-0.188 1.976 0.376 2.541 1.412 1.412 4.141 0.094 3.765-1.788-0.376-2.165-3.388-2.729-4.141-0.753zM29.553 3.859c-0.282 0.471-0.941 0.659-1.412 0.282-0.471-0.282-0.659-0.941-0.282-1.412 0.282-0.471 0.941-0.659 1.412-0.282 0.471 0.282 0.659 0.941 0.282 1.412z"></path>
<path d="M16.188 4.894c-0.659 0.659-1.129 1.788-1.129 2.635 0 0.941-2.259 2.259-6.306 3.859-9.506 3.671-9.6 4.235-0.941 12.8 8.565 8.659 9.318 8.565 12.894-0.941 1.6-4.329 2.918-6.306 4.141-6.494 0.941-0.188 2.259-1.035 2.824-1.882 0.847-1.412 0.188-2.447-3.671-6.4-4.894-4.894-5.929-5.459-7.812-3.576zM23.059 9.412c2.918 3.012 3.482 3.953 2.541 4.894s-1.318 0.941-1.976 0c-0.659-1.035-0.847-0.941-1.318 0.282-0.565 1.224-0.941 1.318-2.729 0.376-1.224-0.659-3.671-1.506-5.459-1.788-3.388-0.659-3.294-0.847 2.353-2.824 1.976-0.753 2.447-1.224 1.506-1.788-1.224-0.753-0.659-2.918 0.753-2.918 0.376 0 2.353 1.694 4.329 3.765zM14.024 14.212c6.776 1.412 7.341 2.447 4.612 9.318-1.129 3.106-2.353 5.647-2.635 5.647s-3.482-2.918-7.059-6.588l-6.494-6.494 3.294-1.412c1.788-0.753 3.294-1.412 3.388-1.506 0.094 0 2.259 0.471 4.894 1.035z"></path>
<path d="M8.847 16.094c-0.941 1.6 1.224 3.388 2.541 2.071 1.129-1.129 0.376-3.106-1.035-3.106-0.471 0-1.129 0.471-1.506 1.035zM11.294 16.941c0 0.471-0.376 0.941-0.941 0.941-0.471 0-0.941-0.471-0.941-0.941 0-0.565 0.471-0.941 0.941-0.941 0.565 0 0.941 0.376 0.941 0.941z"></path>
<path d="M14.494 17.412c-0.376 0.847-0.188 1.976 0.376 2.541 1.412 1.412 4.141 0.094 3.765-1.788-0.376-2.165-3.388-2.729-4.141-0.753zM17.318 18.918c-0.282 0.471-0.941 0.659-1.412 0.282-0.471-0.282-0.659-0.941-0.282-1.412 0.282-0.471 0.941-0.659 1.412-0.282 0.471 0.282 0.659 0.941 0.282 1.412z"></path>
<path d="M12.235 22.588c0 0.471 0.471 0.941 0.941 0.941 0.565 0 0.941-0.471 0.941-0.941 0-0.565-0.376-0.941-0.941-0.941-0.471 0-0.941 0.376-0.941 0.941z"></path>
<path d="M27.294 8.471c0 0.471 0.471 0.941 0.941 0.941 0.565 0 0.941-0.471 0.941-0.941 0-0.565-0.376-0.941-0.941-0.941-0.471 0-0.941 0.376-0.941 0.941z"></path>
</svg>
