<?xml version="1.0" encoding="utf-8"?>
<!-- Generated by IcoMoon.io -->
<!DOCTYPE svg PUBLIC "-//W3C//DTD SVG 1.1//EN" "http://www.w3.org/Graphics/SVG/1.1/DTD/svg11.dtd">
<svg version="1.1" xmlns="http://www.w3.org/2000/svg" xmlns:xlink="http://www.w3.org/1999/xlink" width="32" height="32" viewBox="0 0 32 32">
<path d="M13.71 2.133c-0.596 0.627-0.847 1.224-0.847 2.039 0 3.357-3.451 7.812-5.302 6.808-0.345-0.157-1.663-0.314-2.918-0.314-2.133 0-2.384 0.063-3.169 0.878l-0.847 0.878v17.129l0.91 0.91c0.847 0.847 1.098 0.91 3.263 0.91 2.071 0 2.416-0.094 3.2-0.816 0.627-0.565 1.067-0.753 1.537-0.596 0.345 0.125 1.318 0.314 2.102 0.471 0.816 0.157 2.008 0.408 2.667 0.596 0.69 0.188 3.42 0.345 6.086 0.345h4.894l0.973-0.91c0.659-0.596 1.067-1.318 1.192-2.102 0.125-0.69 0.502-1.6 0.816-2.102 0.345-0.471 0.69-1.6 0.784-2.51 0.094-0.878 0.471-2.353 0.816-3.231 0.533-1.349 0.596-1.788 0.282-2.667-0.282-0.816-0.251-1.098 0.125-1.537 0.627-0.69 0.596-2.541-0.063-3.702-0.784-1.38-2.008-1.757-6.212-1.945l-3.765-0.157 0.094-2.196c0.125-2.729-0.659-4.706-2.416-6.086-1.6-1.286-3.043-1.318-4.204-0.094zM16.847 3.827c1.255 1.412 1.757 3.043 1.569 5.051-0.094 1.035-0.314 2.008-0.502 2.196s-0.345 0.596-0.345 0.878c0 0.471 0.533 0.565 4.988 0.659 4.361 0.094 5.082 0.157 5.647 0.69 0.784 0.722 0.847 1.82 0.125 2.541-0.376 0.408-0.816 0.471-1.788 0.345-0.878-0.157-1.506-0.063-1.914 0.22-0.565 0.439-0.565 0.471 0.094 0.816 0.408 0.22 1.161 0.282 1.757 0.157 0.91-0.157 1.161-0.063 1.6 0.627 0.502 0.753 0.502 0.847-0.063 1.82s-0.722 1.035-2.102 0.973c-0.816-0.063-1.788 0.063-2.133 0.251-0.659 0.345-0.659 0.376-0.063 0.816 0.376 0.282 0.973 0.376 1.726 0.251 1.38-0.251 2.008 0.345 1.694 1.694-0.282 1.38-1.192 2.039-2.447 1.788-0.596-0.125-1.318-0.125-1.6 0-0.596 0.22-0.69 1.067-0.094 1.098 1.757 0.094 2.133 0.188 2.478 0.533 0.314 0.314 0.282 0.565-0.125 1.255-0.533 0.847-0.533 0.847-4.549 0.941-3.326 0.063-4.674-0.063-7.718-0.69-2.039-0.439-3.922-0.91-4.204-1.098-0.471-0.251-0.533-1.035-0.502-7.122 0.031-6.651 0.063-6.871 0.722-7.404 0.376-0.314 0.847-0.565 1.067-0.565 0.69 0 2.729-2.196 3.545-3.827 0.471-0.91 0.878-2.353 0.941-3.231 0.094-0.847 0.188-1.757 0.251-1.976 0.22-0.596 1.255-0.439 1.945 0.314zM7.027 21.020l0.031 8.314h-4.392l-0.094-8c-0.031-4.392 0-8.188 0.094-8.408 0.094-0.282 0.722-0.376 2.227-0.314l2.071 0.094 0.063 8.314z"></path>
<path d="M3.702 26.51c-0.282 0.659-0.251 0.878 0.22 1.412 0.722 0.784 1.161 0.784 1.882 0 0.784-0.878 0.22-2.196-0.941-2.196-0.533 0-0.91 0.251-1.161 0.784z"></path>
</svg>
