<?xml version="1.0" encoding="utf-8"?>
<!-- Generated by IcoMoon.io -->
<!DOCTYPE svg PUBLIC "-//W3C//DTD SVG 1.1//EN" "http://www.w3.org/Graphics/SVG/1.1/DTD/svg11.dtd">
<svg version="1.1" xmlns="http://www.w3.org/2000/svg" xmlns:xlink="http://www.w3.org/1999/xlink" width="32" height="32" viewBox="0 0 32 32">
<path d="M11.922 1.82c-6.839 2.541-9.412 9.976-5.992 17.318 1.349 2.918 4.58 7.561 7.467 10.667 1.914 2.102 2.667 2.102 4.58 0 4.173-4.518 7.341-9.569 8.502-13.522 2.259-7.749-3.075-15.090-10.949-14.996-1.224 0-2.824 0.251-3.608 0.533zM18.573 3.671c3.765 1.474 6.463 5.114 6.494 8.753 0.031 2.855-1.694 7.059-4.455 10.792-2.51 3.42-4.706 5.961-5.114 5.961-0.22 0-0.596-0.314-0.784-0.722-0.22-0.376-0.471-0.753-0.596-0.847-0.596-0.439-4.769-6.369-5.647-8-2.698-5.020-2.824-8.439-0.502-12.235 0.596-0.973 3.357-3.294 3.89-3.294 0.157 0 0.722-0.22 1.192-0.471 1.192-0.627 3.859-0.596 5.522 0.063z"></path>
<path d="M13.333 6.902c-1.067 0.471-2.259 1.694-2.98 3.075-1.882 3.608 1.161 8.314 5.333 8.314 1.976 0 3.922-1.161 5.176-3.075 0.847-1.286 0.847-4.329 0-5.647-0.784-1.192-2.008-2.322-2.918-2.698-0.91-0.345-3.765-0.345-4.612 0.031zM17.694 8.502c2.761 1.38 3.2 4.706 0.941 7.090-0.22 0.22-0.941 0.596-1.663 0.847-2.761 0.941-5.678-1.192-5.678-4.173 0-1.663 0.816-2.98 2.353-3.765 1.6-0.816 2.416-0.816 4.047 0z"></path>
</svg>
