<?xml version="1.0" encoding="utf-8"?>
<!-- Generated by IcoMoon.io -->
<!DOCTYPE svg PUBLIC "-//W3C//DTD SVG 1.1//EN" "http://www.w3.org/Graphics/SVG/1.1/DTD/svg11.dtd">
<svg version="1.1" xmlns="http://www.w3.org/2000/svg" xmlns:xlink="http://www.w3.org/1999/xlink" width="25" height="32" viewBox="0 0 25 32">
<path d="M8.564 1.768c-1.737 0.67-3.84 2.743-4.602 4.51-0.457 1.036-0.61 2.072-0.61 4.114 0 2.255-0.091 2.712-0.488 2.712-0.244 0-0.884 0.396-1.371 0.884l-0.884 0.884v4.571c0 5.242 0.366 6.522 2.469 8.625 2.072 2.072 3.291 2.408 8.625 2.408 5.272 0 6.248-0.274 8.411-2.438s2.438-3.109 2.438-8.564v-4.785l-0.945-0.792c-0.518-0.427-1.128-0.792-1.371-0.792-0.335 0-0.427-0.579-0.427-2.834 0-3.291-0.518-4.693-2.438-6.613-2.316-2.316-5.76-3.048-8.808-1.89zM14.11 3.566c2.865 1.585 3.87 3.383 3.87 6.949v2.59h-1.829v-5.425l-1.402-1.402c-1.341-1.341-1.463-1.402-3.17-1.402s-1.829 0.061-3.17 1.402l-1.402 1.402v5.425h-1.829v-2.59c0-3.535 0.975-5.333 3.688-6.857 1.341-0.762 3.962-0.792 5.242-0.091zM13.044 6.461c0.061 0.122 0.305 0.244 0.549 0.244s0.549 0.244 0.64 0.518c0.122 0.305 0.335 0.64 0.518 0.762 0.152 0.122 0.305 1.28 0.305 2.59l0.030 2.377-7.253 0.183 0.152-2.499c0.091-1.341 0.274-2.56 0.457-2.651 0.152-0.122 0.366-0.457 0.488-0.762 0.091-0.274 0.396-0.518 0.67-0.518 0.244 0 0.457-0.122 0.457-0.274 0-0.61 2.743-0.579 2.987 0.030zM20.663 19.261c0.091 4.632-0.152 5.577-1.95 7.375-1.737 1.737-2.773 2.011-7.131 2.011s-5.394-0.274-7.131-2.011c-1.737-1.768-2.011-2.743-2.011-7.223 0-2.225 0.091-4.175 0.213-4.267 0.122-0.122 4.175-0.183 9.051-0.152l8.869 0.091 0.091 4.175z"></path>
<path d="M10.27 19.139c-0.64 0.701-0.67 1.981-0.030 3.627 0.427 1.097 0.64 1.31 1.31 1.31s0.945-0.244 1.341-1.158c0.67-1.554 0.67-3.17-0.030-3.81-0.731-0.67-1.981-0.64-2.59 0.030z"></path>
</svg>
