<?xml version="1.0" encoding="utf-8"?>
<!-- Generated by IcoMoon.io -->
<!DOCTYPE svg PUBLIC "-//W3C//DTD SVG 1.1//EN" "http://www.w3.org/Graphics/SVG/1.1/DTD/svg11.dtd">
<svg version="1.1" xmlns="http://www.w3.org/2000/svg" xmlns:xlink="http://www.w3.org/1999/xlink" width="32" height="32" viewBox="0 0 32 32">
<path d="M2.478 6.965c-1.757 1.067-1.851 1.6-1.851 9.349 0 7.78 0.094 8.314 1.882 9.38 0.784 0.439 2.353 0.502 13.176 0.502 13.49 0 13.427 0 14.557-1.882 0.753-1.318 0.753-14.682 0-16-1.129-1.882-1.067-1.882-14.62-1.882-10.855 0.031-12.424 0.063-13.145 0.533zM28.424 8.973c0.627 0.69 0.376 1.443-0.69 2.008-0.784 0.439-3.388 2.133-3.576 2.384-0.094 0.094-1.694 1.318-3.608 2.729-1.882 1.412-3.608 2.698-3.827 2.886-0.502 0.408-1.569 0.408-2.071 0-0.753-0.659-10.447-7.686-11.012-8.031-1.098-0.596-1.318-1.286-0.69-1.976 0.596-0.659 0.878-0.659 12.737-0.659s12.141 0 12.737 0.659zM4.141 12.643c0.031 0.126 1.098 1.004 2.29 1.914 1.224 0.91 2.133 1.757 2.071 1.851-0.094 0.125-1.067 0.91-2.165 1.757-1.129 0.847-2.29 1.788-2.635 2.133-0.314 0.314-0.722 0.502-0.878 0.408-0.345-0.22-0.439-8.408-0.126-8.722 0.22-0.22 1.255 0.251 1.443 0.659zM28.863 16.314c0 2.353-0.125 4.267-0.314 4.392-0.157 0.094-0.565-0.094-0.878-0.408-0.345-0.345-1.506-1.286-2.635-2.133-1.098-0.847-2.071-1.631-2.165-1.726-0.063-0.094 0.816-0.878 1.945-1.757 1.129-0.847 2.384-1.882 2.761-2.259s0.816-0.596 0.973-0.502c0.188 0.126 0.314 2.039 0.314 4.392zM12.486 19.137c2.918 2.196 3.482 2.196 6.149 0.188 1.129-0.847 2.29-1.631 2.604-1.726 0.376-0.125 1.412 0.439 3.231 1.788 1.474 1.067 2.949 2.102 3.263 2.29 1.098 0.596 1.318 1.286 0.69 1.976-0.596 0.659-0.878 0.659-12.737 0.659s-12.141 0-12.737-0.659c-0.627-0.69-0.408-1.38 0.69-1.976 0.314-0.188 1.788-1.224 3.263-2.322 1.474-1.067 2.824-1.945 2.98-1.945 0.188 0 1.349 0.784 2.604 1.726z"></path>
</svg>
