<?xml version="1.0" encoding="utf-8"?>
<!-- Generated by IcoMoon.io -->
<!DOCTYPE svg PUBLIC "-//W3C//DTD SVG 1.1//EN" "http://www.w3.org/Graphics/SVG/1.1/DTD/svg11.dtd">
<svg version="1.1" xmlns="http://www.w3.org/2000/svg" xmlns:xlink="http://www.w3.org/1999/xlink" width="32" height="32" viewBox="0 0 32 32">
<path d="M21.678 2.102c-0.565 0.439-1.663 1.757-2.384 2.918-2.824 4.392-3.514 4.706-10.761 4.706-6.18 0-5.929-0.094-7.373 2.259-1.6 2.541 0.314 7.153 2.918 7.153 2.039 0 2.196 0.439 2.196 6.18 0 6.18-0.063 6.055 3.827 6.055 2.196 0 2.761-0.094 3.169-0.565 0.659-0.722 0.69-2.761 0.063-3.42-0.408-0.376-0.471-1.192-0.408-4.298 0.094-3.639 0.126-3.796 0.784-3.89 1.286-0.188 3.639 1.726 5.427 4.392 2.102 3.137 3.2 4.016 5.082 4.016 3.733 0 6.526-5.616 6.526-13.176 0-5.49-1.443-10.039-3.89-12.11-1.631-1.412-3.576-1.474-5.176-0.22zM25.788 3.984c0.973 1.067 1.82 2.698 2.165 4.173 0.125 0.596 0.376 1.663 0.565 2.353s0.345 2.447 0.345 3.922c0 1.474-0.157 3.231-0.345 3.922s-0.439 1.757-0.565 2.353c-0.596 2.478-2.447 5.020-3.671 5.020-0.376 0-1.035-0.282-1.474-0.627-0.973-0.753-2.416-3.169-2.416-4.047 0-0.345-0.125-0.722-0.314-0.816-0.157-0.094-0.314-0.376-0.314-0.627 0-0.314 0.565-0.471 2.102-0.533 2.071-0.094 2.133-0.125 3.137-1.443 0.878-1.161 1.035-1.631 1.035-3.106 0-1.224-0.188-2.071-0.659-2.792-0.973-1.6-1.757-2.008-3.796-2.008-1.38 0-1.82-0.126-1.82-0.439 0-0.251 0.157-0.565 0.314-0.659 0.188-0.094 0.314-0.439 0.314-0.722 0-0.816 1.098-2.855 2.102-3.89 1.098-1.129 2.227-1.129 3.294-0.031zM17.976 10.886c-0.314 1.129-0.314 5.961 0 7.059 0.314 1.129-0.282 1.161-1.976 0.094-0.784-0.502-1.694-0.784-2.478-0.784-1.067 0-1.318-0.157-1.914-1.129-0.784-1.224-0.722-2.353 0.188-3.733 0.408-0.627 0.784-0.784 1.82-0.816 0.816 0 1.694-0.282 2.384-0.753 0.596-0.408 1.349-0.753 1.663-0.753 0.439-0.031 0.502 0.126 0.314 0.816zM10.667 12.047c0 0.251-0.126 0.565-0.314 0.659-0.502 0.314-0.376 3.169 0.157 3.608 0.878 0.722 0.126 0.941-3.294 0.941-3.294 0-3.42-0.031-4.047-0.816-0.847-1.098-0.847-2.918 0-4.016 0.627-0.784 0.753-0.816 4.078-0.816 2.761 0 3.42 0.094 3.42 0.439zM23.498 12.424c0.408 0.502 0.659 1.286 0.659 2.008s-0.251 1.506-0.659 2.008c-0.565 0.69-0.878 0.816-2.353 0.816h-1.694v-5.647h1.694c1.474 0 1.788 0.126 2.353 0.816zM10.98 23.341c0 3.326 0.094 4.267 0.471 4.58 0.251 0.22 0.471 0.659 0.471 0.973 0 0.533-0.251 0.596-1.882 0.596h-1.882v-4.204c0-2.29-0.094-4.643-0.188-5.176l-0.188-0.973h3.2v4.204z"></path>
</svg>
