<?xml version="1.0" encoding="utf-8"?>
<!-- Generated by IcoMoon.io -->
<!DOCTYPE svg PUBLIC "-//W3C//DTD SVG 1.1//EN" "http://www.w3.org/Graphics/SVG/1.1/DTD/svg11.dtd">
<svg version="1.1" xmlns="http://www.w3.org/2000/svg" xmlns:xlink="http://www.w3.org/1999/xlink" width="32" height="32" viewBox="0 0 32 32">
<path d="M1.474 3.075l-0.847 0.878v21.020l1.82 1.757 5.051-0.094c5.333-0.094 6.337 0.125 5.333 1.129-0.314 0.314-1.474 0.565-3.451 0.722-2.918 0.22-2.949 0.22-3.043 1.067l-0.094 0.878h9.443l9.443-0.031-0.094-0.847c-0.094-0.847-0.125-0.847-3.043-1.067-1.976-0.157-3.137-0.408-3.451-0.722-1.004-1.004 0-1.224 5.396-1.129l5.145 0.063 0.816-0.973 0.847-1.004v-20.58l-1.631-1.945h-26.792l-0.847 0.878zM28.706 14.431v10.196h-26.039l-0.094-9.882c-0.031-5.427 0-10.071 0.094-10.29 0.094-0.314 2.855-0.376 13.082-0.314l12.957 0.094v10.196z"></path>
<path d="M4.612 6.18c-0.125 0.094-0.22 3.42-0.22 7.373v7.153l0.816 0.314c1.067 0.408 19.922 0.408 20.988 0l0.784-0.314-0.063-7.278-0.094-7.31-11.012-0.094c-6.055-0.031-11.075 0.031-11.2 0.157zM25.82 13.49l-0.031 6.306h-20.204v-6.212c0-3.42 0-6.274 0.031-6.369s4.58-0.125 10.133-0.094l10.102 0.031-0.031 6.337z"></path>
</svg>
