<?xml version="1.0" encoding="utf-8"?>
<!-- Generated by IcoMoon.io -->
<!DOCTYPE svg PUBLIC "-//W3C//DTD SVG 1.1//EN" "http://www.w3.org/Graphics/SVG/1.1/DTD/svg11.dtd">
<svg version="1.1" xmlns="http://www.w3.org/2000/svg" xmlns:xlink="http://www.w3.org/1999/xlink" width="32" height="32" viewBox="0 0 32 32">
<path d="M25.882 1.726c-0.847 0.22-2.165 0.439-2.886 0.439-0.722 0.031-1.663 0.157-2.102 0.345-0.439 0.157-1.82 0.439-3.075 0.627-3.608 0.471-5.71 1.004-6.274 1.506-0.502 0.439-0.565 1.255-0.565 8.91 0 8.878-0.031 8.973-1.38 7.937s-5.114-0.408-6.996 1.161c-1.035 0.847-1.976 2.761-1.976 4.016 0 1.537 0.659 2.604 2.322 3.796 1.035 0.753 1.537 0.91 3.137 0.91 1.537 0 2.227-0.188 3.545-0.941 0.91-0.533 2.008-1.474 2.447-2.102l0.784-1.192v-16.345l3.231-0.533c1.757-0.314 4.141-0.784 5.271-1.035 1.161-0.251 2.447-0.439 2.886-0.439 0.408 0 1.38-0.22 2.102-0.471 2.635-0.941 2.51-1.192 2.51 5.176 0 5.961-0.063 6.18-1.38 5.176-0.941-0.69-3.796-0.596-5.427 0.188-0.753 0.345-1.851 1.255-2.447 1.976-0.941 1.192-1.098 1.569-1.098 3.043 0 1.412 0.157 1.851 0.878 2.635 1.474 1.631 2.384 2.039 4.549 2.039 2.792 0 4.674-0.973 6.055-3.2l0.753-1.192v-10.918c0-10.196-0.031-10.98-0.565-11.451-0.659-0.627-2.071-0.627-4.298-0.063zM28.863 4.518v1.38l-1.631 0.376c-0.91 0.188-2.573 0.471-3.702 0.627-2.51 0.345-5.176 0.847-7.749 1.443-2.886 0.659-2.918 0.659-2.918-0.91v-1.38l2.604-0.502c1.412-0.251 3.42-0.627 4.455-0.847 1.035-0.188 2.729-0.471 3.765-0.627s2.322-0.408 2.824-0.596c0.533-0.157 1.255-0.314 1.663-0.314 0.627-0.031 0.69 0.126 0.69 1.349zM27.294 20.58c1.757 1.161 2.008 2.353 0.878 3.89-1.537 2.071-4.706 2.824-6.4 1.506-1.192-0.91-1.38-1.192-1.38-2.196 0-2.478 4.706-4.643 6.902-3.2zM9.412 23.404c2.416 1.631 2.008 3.89-0.941 5.427-2.133 1.098-4.486 0.69-5.71-1.067-0.784-1.067 0.376-3.263 2.259-4.267 1.38-0.722 3.388-0.753 4.392-0.094z"></path>
</svg>
