<?xml version="1.0" encoding="utf-8"?>
<!-- Generated by IcoMoon.io -->
<!DOCTYPE svg PUBLIC "-//W3C//DTD SVG 1.1//EN" "http://www.w3.org/Graphics/SVG/1.1/DTD/svg11.dtd">
<svg version="1.1" xmlns="http://www.w3.org/2000/svg" xmlns:xlink="http://www.w3.org/1999/xlink" width="32" height="32" viewBox="0 0 32 32">
<path d="M5.239 2.133c-0.659 0.69-0.847 1.192-0.847 2.353 0 1.474 0 1.474-1.067 1.474-0.816 0-1.286 0.22-1.882 0.973l-0.816 0.973v10.353c0 11.325 0.031 11.482 1.882 12.612 0.784 0.439 2.353 0.502 13.176 0.502 13.49 0 13.427 0 14.557-1.882 0.439-0.784 0.502-2.384 0.502-13.584v-12.706l-1.631-1.945h-23.027l-0.847 0.878zM28.8 15.812c0.063 11.326 0.031 12.58-0.439 13.114-0.502 0.533-1.286 0.565-12.675 0.565s-12.173-0.031-12.675-0.565c-0.471-0.533-0.502-1.631-0.439-10.761l0.094-10.165 0.847-0.094 0.878-0.094 0.063 9.82 0.094 9.82h1.569l0.094-11.765c0.031-6.463 0.125-11.953 0.22-12.173 0.094-0.314 2.51-0.376 11.2-0.314l11.075 0.094 0.094 12.518z"></path>
<path d="M8.502 5.459c-0.251 0.282-0.345 1.631-0.282 4.141l0.094 3.733h8.157v-8.157l-3.796-0.094c-2.98-0.063-3.89 0-4.173 0.376zM14.745 9.255v2.353h-4.706v-4.706h4.706v2.353z"></path>
<path d="M18.604 7.059c-0.094 0.282-0.094 0.565 0 0.659 0.125 0.157 6.369 0.251 8 0.157 0.533-0.031 0.471-0.878-0.125-1.098-0.282-0.094-2.102-0.188-4.078-0.188-2.949 0-3.639 0.094-3.796 0.471z"></path>
<path d="M18.51 10.196c0 0.408 0.69 0.471 4.235 0.471s4.235-0.063 4.235-0.471c0-0.408-0.69-0.471-4.235-0.471s-4.235 0.063-4.235 0.471z"></path>
<path d="M18.51 13.020c0 0.408 0.69 0.471 4.235 0.471s4.235-0.063 4.235-0.471c0-0.408-0.69-0.471-4.235-0.471s-4.235 0.063-4.235 0.471z"></path>
<path d="M8.157 15.843c0 0.408 1.255 0.471 9.412 0.471s9.412-0.063 9.412-0.471c0-0.408-1.255-0.471-9.412-0.471s-9.412 0.063-9.412 0.471z"></path>
<path d="M8.157 18.667c0 0.408 1.255 0.471 9.412 0.471s9.412-0.063 9.412-0.471c0-0.408-1.255-0.471-9.412-0.471s-9.412 0.063-9.412 0.471z"></path>
<path d="M18.761 21.051c-0.188 0.125-0.251 0.471-0.125 0.753 0.125 0.376 0.408 0.471 0.91 0.345 0.376-0.094 2.196-0.188 4.078-0.188 2.698 0 3.357-0.094 3.357-0.439 0-0.376-0.753-0.471-3.953-0.565-2.165-0.063-4.11 0-4.267 0.094z"></path>
<path d="M8.157 21.459c0 0.376 0.753 0.471 3.859 0.565 4.267 0.094 4.612 0.063 4.612-0.565 0-0.345-0.816-0.439-4.235-0.439-3.482 0-4.235 0.094-4.235 0.439z"></path>
<path d="M11.859 23.749c-2.918 0.094-3.702 0.22-3.702 0.565s0.784 0.439 3.859 0.533c4.329 0.094 4.675 0.063 4.549-0.659-0.125-0.565 0.063-0.565-4.706-0.439z"></path>
<path d="M18.635 24c-0.251 0.596 0.408 1.192 1.067 0.941 0.251-0.094 1.976-0.157 3.859-0.157 2.824 0 3.42-0.094 3.42-0.471s-0.596-0.471-3.357-0.471c-1.882 0-3.702-0.094-4.078-0.188-0.502-0.125-0.784-0.031-0.91 0.345z"></path>
<path d="M8.157 27.137c0 0.408 0.69 0.471 4.235 0.471s4.235-0.063 4.235-0.471c0-0.408-0.69-0.471-4.235-0.471s-4.235 0.063-4.235 0.471z"></path>
<path d="M18.51 27.137c0 0.408 0.69 0.471 4.235 0.471s4.235-0.063 4.235-0.471c0-0.408-0.69-0.471-4.235-0.471s-4.235 0.063-4.235 0.471z"></path>
</svg>
