<?xml version="1.0" encoding="utf-8"?>
<!-- Generated by IcoMoon.io -->
<!DOCTYPE svg PUBLIC "-//W3C//DTD SVG 1.1//EN" "http://www.w3.org/Graphics/SVG/1.1/DTD/svg11.dtd">
<svg version="1.1" xmlns="http://www.w3.org/2000/svg" xmlns:xlink="http://www.w3.org/1999/xlink" width="32" height="32" viewBox="0 0 32 32">
<path d="M1.474 3.075l-0.847 0.878v24.533l1.631 1.945h26.855l1.631-1.945v-19.545l-6.745-6.745h-21.678l-0.847 0.878zM22.212 6.557c-0.063 2.353-0.031 2.541 0.784 3.357s1.035 0.847 3.388 0.784l2.478-0.063-0.063 8.878-0.094 8.878h-26.039l-0.094-11.765c-0.031-6.463 0-11.953 0.094-12.141 0.094-0.314 2.353-0.408 9.882-0.408h9.726l-0.063 2.478zM28.329 9.475c-0.063 0.157-0.878 0.251-1.82 0.251-1.412 0-1.851-0.126-2.51-0.784-0.627-0.659-0.784-1.098-0.784-2.478 0-0.91 0.094-1.726 0.188-1.851 0.251-0.251 5.082 4.549 4.925 4.863z"></path>
<path d="M4.518 7.31c-0.063 0.22-0.094 1.882-0.063 3.702l0.094 3.263h8.157v-7.216l-4.016-0.094c-3.137-0.063-4.047 0-4.173 0.345zM10.98 10.667v1.882h-4.706v-3.765h4.706v1.882z"></path>
<path d="M14.839 8.031c-0.282 0.784 0.376 1.004 2.98 0.941 2.196-0.031 2.416-0.094 2.416-0.659s-0.251-0.627-2.604-0.722c-2.165-0.063-2.604 0-2.792 0.439z"></path>
<path d="M15.059 10.604c-0.439 0.157-0.376 1.004 0.094 1.004 0.188 0 1.318 0.063 2.51 0.094 2.259 0.094 2.886-0.094 2.667-0.753-0.094-0.314-0.784-0.439-2.541-0.439-1.318 0-2.541 0.031-2.729 0.094z"></path>
<path d="M17.82 13.396c-2.416 0.094-3.075 0.22-3.075 0.565 0 0.376 1.035 0.471 5.741 0.533 6.18 0.094 6.494 0.063 6.494-0.533 0-0.816-0.471-0.847-9.161-0.565z"></path>
<path d="M4.392 16.784c0 0.408 1.474 0.471 11.294 0.471s11.294-0.063 11.294-0.471c0-0.408-1.474-0.471-11.294-0.471s-11.294 0.063-11.294 0.471z"></path>
<path d="M4.392 19.608c0 0.408 1.474 0.471 11.294 0.471s11.294-0.063 11.294-0.471c0-0.408-1.474-0.471-11.294-0.471s-11.294 0.063-11.294 0.471z"></path>
<path d="M4.392 22.431c0 0.408 1.474 0.471 11.294 0.471s11.294-0.063 11.294-0.471c0-0.408-1.474-0.471-11.294-0.471s-11.294 0.063-11.294 0.471z"></path>
<path d="M4.392 25.255c0 0.408 1.474 0.471 11.294 0.471s11.294-0.063 11.294-0.471c0-0.408-1.474-0.471-11.294-0.471s-11.294 0.063-11.294 0.471z"></path>
</svg>
