<?xml version="1.0" encoding="utf-8"?>
<!-- Generated by IcoMoon.io -->
<!DOCTYPE svg PUBLIC "-//W3C//DTD SVG 1.1//EN" "http://www.w3.org/Graphics/SVG/1.1/DTD/svg11.dtd">
<svg version="1.1" xmlns="http://www.w3.org/2000/svg" xmlns:xlink="http://www.w3.org/1999/xlink" width="32" height="32" viewBox="0 0 32 32">
<path d="M15.086 10.057c-7.497 5.029-13.806 9.509-13.989 9.966s1.554 1.554 3.749 2.377c2.926 1.097 4.389 2.377 5.486 4.663 1.737 3.566 2.926 3.931 4.297 1.371 0.914-1.829 1.006-1.829 5.486 0.091 2.56 1.006 4.846 1.737 5.029 1.463 0.366-0.366 5.029-26.514 5.029-28.434 0-1.371-1.737-0.366-15.086 8.503zM26.88 8.869c-0.183 2.469-0.914 7.497-1.554 11.246-1.371 7.406-1.737 7.68-7.314 5.577l-2.377-0.914 4.389-6.674c2.377-3.657 4.846-7.68 5.486-8.96l1.097-2.286-2.011 2.286c-1.006 1.28-4.023 5.669-6.583 9.874-2.469 4.114-4.846 7.497-5.12 7.497s-1.006-0.731-1.554-1.646c-0.823-1.28 0.274-3.017 7.314-10.88 4.571-5.211 8.411-9.417 8.503-9.417s0 1.92-0.274 4.297zM19.383 11.611c-8.229 9.509-9.6 10.514-12.526 9.417-1.371-0.549-2.377-1.189-2.103-1.371 0.64-0.64 18.469-13.074 18.834-13.166 0.183-0.091-1.737 2.286-4.206 5.12z"></path>
</svg>
