<?xml version="1.0" encoding="utf-8"?>
<!-- Generated by IcoMoon.io -->
<!DOCTYPE svg PUBLIC "-//W3C//DTD SVG 1.1//EN" "http://www.w3.org/Graphics/SVG/1.1/DTD/svg11.dtd">
<svg version="1.1" xmlns="http://www.w3.org/2000/svg" xmlns:xlink="http://www.w3.org/1999/xlink" width="32" height="32" viewBox="0 0 32 32">
<path d="M3.357 2.133c-0.722 0.753-0.847 1.161-0.847 2.918-0.031 1.757-0.126 2.133-0.941 3.106-1.318 1.506-1.318 3.514 0 5.020l0.91 1.098 0.031 7.718v7.686l0.878 0.847c1.192 1.129 2.698 1.129 3.89 0l0.878-0.847v-7.686l0.031-7.718 0.91-1.098c1.318-1.506 1.318-3.514 0-5.020-0.816-0.973-0.91-1.349-0.941-3.169 0-1.82-0.094-2.133-0.878-2.886-1.224-1.161-2.792-1.161-3.922 0.031zM6.212 4.58c0.063 0.941-0.031 1.349-0.376 1.474-0.941 0.376-1.443-0.125-1.443-1.318 0-1.38 0.22-1.663 1.098-1.537 0.502 0.063 0.659 0.376 0.722 1.38zM7.341 8.816c1.035 1.224 1.035 2.478 0 3.702-1.067 1.286-2.698 1.349-3.953 0.126-1.161-1.098-1.161-2.51-0.063-3.827 0.627-0.784 1.067-0.973 2.008-0.973s1.38 0.188 2.008 0.973zM5.898 15.31c0.282 0.22 0.376 1.851 0.314 7.153l-0.094 6.871h-1.569l-0.094-6.871c-0.063-6.714 0-7.404 0.878-7.404 0.094 0 0.345 0.126 0.565 0.251z"></path>
<path d="M13.71 2.133l-0.847 0.878v7.686l-0.031 7.655-0.91 1.098c-1.318 1.506-1.286 3.42 0 5.145 0.816 1.067 0.941 1.506 0.941 3.169 0 1.694 0.094 2.008 0.878 2.761 1.192 1.129 2.698 1.129 3.89 0 0.784-0.753 0.878-1.067 0.878-2.886 0.031-1.82 0.125-2.196 0.941-3.169 0.753-0.847 0.941-1.38 0.941-2.51s-0.188-1.663-0.941-2.51l-0.91-1.098-0.031-7.718v-7.686l-0.878-0.847c-1.224-1.161-2.792-1.161-3.922 0.031zM16.565 10.227c0.063 5.992 0 6.996-0.408 7.153-0.251 0.094-0.69 0.094-0.941 0-0.408-0.157-0.471-1.255-0.471-6.996 0-3.765 0.094-6.933 0.22-7.059s0.502-0.188 0.878-0.126c0.596 0.094 0.627 0.314 0.722 7.027zM17.694 20.11c0.471 0.533 0.816 1.349 0.816 1.851s-0.345 1.318-0.816 1.851c-0.627 0.784-1.067 0.973-2.008 0.973s-1.38-0.188-2.008-0.973c-1.035-1.224-1.035-2.478 0-3.702 0.627-0.784 1.067-0.973 2.008-0.973s1.38 0.188 2.008 0.973zM16.251 26.635c0.251 0.157 0.376 0.722 0.314 1.474-0.094 1.067-0.188 1.224-0.878 1.224s-0.784-0.157-0.878-1.224c-0.094-1.067 0.251-1.757 0.878-1.757 0.094 0 0.345 0.125 0.565 0.282z"></path>
<path d="M24.063 2.133c-0.722 0.753-0.847 1.161-0.847 2.918-0.031 1.757-0.125 2.133-0.941 3.106-0.753 0.847-0.941 1.38-0.941 2.51s0.188 1.663 0.941 2.51l0.91 1.098 0.031 7.718v7.686l0.878 0.847c1.192 1.129 2.698 1.129 3.89 0l0.878-0.847v-7.686l0.031-7.718 0.91-1.098c0.753-0.847 0.941-1.38 0.941-2.51s-0.188-1.663-0.941-2.51c-0.816-0.973-0.91-1.349-0.941-3.169 0-1.82-0.094-2.133-0.878-2.886-1.224-1.161-2.792-1.161-3.922 0.031zM26.918 4.58c0.063 0.941-0.031 1.349-0.376 1.474-0.941 0.376-1.443-0.125-1.443-1.318 0-1.38 0.22-1.663 1.098-1.537 0.502 0.063 0.659 0.376 0.722 1.38zM28.047 8.816c1.035 1.224 1.035 2.478 0 3.702-0.627 0.784-1.067 0.973-2.008 0.973s-1.38-0.188-2.008-0.973c-1.035-1.224-1.035-2.478 0-3.702 0.627-0.784 1.067-0.973 2.008-0.973s1.38 0.188 2.008 0.973zM26.604 15.31c0.282 0.22 0.376 1.851 0.314 7.153l-0.094 6.871h-1.569l-0.094-6.871c-0.063-6.714 0-7.404 0.878-7.404 0.094 0 0.345 0.126 0.565 0.251z"></path>
</svg>
