<?xml version="1.0" encoding="utf-8"?>
<!-- Generated by IcoMoon.io -->
<!DOCTYPE svg PUBLIC "-//W3C//DTD SVG 1.1//EN" "http://www.w3.org/Graphics/SVG/1.1/DTD/svg11.dtd">
<svg version="1.1" xmlns="http://www.w3.org/2000/svg" xmlns:xlink="http://www.w3.org/1999/xlink" width="32" height="32" viewBox="0 0 32 32">
<path d="M19.765 1.914c-1.474 0.784-15.906 15.341-16.659 16.816-0.314 0.659-0.596 1.38-0.596 1.631 0 0.439-0.627 2.792-1.443 5.396-0.69 2.259-0.565 3.263 0.533 4.518 1.129 1.255 2.133 1.412 4.8 0.659 2.071-0.596 5.114-1.349 6.306-1.6 1.224-0.251 16.471-15.373 17.412-17.286 0.784-1.569 0.816-4.078 0.094-5.678-0.722-1.537-3.043-3.859-4.58-4.58-1.537-0.69-4.424-0.627-5.867 0.125zM24.878 3.671c2.384 1.318 3.984 3.576 3.984 5.678 0 1.192-1.694 4.141-2.384 4.141-0.188 0-0.596-0.847-0.91-1.851-0.847-2.824-3.106-4.831-6.18-5.49-1.255-0.282-1.067-0.816 0.596-2.008 1.726-1.161 3.357-1.318 4.894-0.471zM18.886 8c0.094 0.094-1.726 2.071-4.078 4.392-4.204 4.204-4.769 4.58-6.149 4.047-0.533-0.22-0.69-0.941-0.22-1.129 0.157-0.063 2.008-1.757 4.078-3.796 3.514-3.388 3.89-3.671 4.988-3.671 0.659 0 1.286 0.063 1.38 0.157zM22.243 9.6c0.533 0.439 0.973 1.067 0.973 1.38 0 0.376-5.929 6.651-8.627 9.035-0.157 0.157-2.667-2.384-2.667-2.729 0-0.125 1.788-2.102 4.016-4.329 2.541-2.635 4.235-4.11 4.675-4.141 0.376 0 1.098 0.345 1.631 0.784zM24.157 14.118v1.569l-3.984 4.141c-2.196 2.29-4.016 4.235-4.078 4.298-0.063 0.125-0.439-0.784-0.847-2.039-0.157-0.533 0.533-1.412 3.89-4.769 2.227-2.29 4.078-4.267 4.078-4.455 0-0.157 0.22-0.314 0.471-0.314 0.345 0 0.471 0.376 0.471 1.569zM10.227 18.886c0.69 0.345 1.788 1.349 2.416 2.227 0.973 1.318 1.161 1.788 1.161 3.169s-0.126 1.757-0.847 2.447c-0.533 0.471-1.443 0.878-2.196 1.004-1.318 0.188-1.318 0.188-1.945-1.192-0.753-1.757-1.6-2.604-3.357-3.388-1.035-0.439-1.38-0.753-1.255-1.129 0.063-0.282 0.22-0.973 0.345-1.474 0.094-0.533 0.502-1.255 0.847-1.663 0.91-0.941 3.075-0.941 4.831 0zM6.431 25.6c0.973 0.941 1.725 1.976 1.663 2.227-0.094 0.533-2.698 1.6-4.016 1.631-1.569 0.063-1.945-1.129-1.129-3.325 0.251-0.659 0.533-1.443 0.627-1.757 0.282-0.91 1.035-0.596 2.855 1.224z"></path>
</svg>
