<?xml version="1.0" encoding="utf-8"?>
<!-- Generated by IcoMoon.io -->
<!DOCTYPE svg PUBLIC "-//W3C//DTD SVG 1.1//EN" "http://www.w3.org/Graphics/SVG/1.1/DTD/svg11.dtd">
<svg version="1.1" xmlns="http://www.w3.org/2000/svg" xmlns:xlink="http://www.w3.org/1999/xlink" width="32" height="32" viewBox="0 0 32 32">
<path d="M6.306 2.071l-0.973 0.816v26.541l1.631 1.945h17.443l1.631-1.945v-26.227l-1.631-1.945h-17.129l-0.973 0.816zM24.094 4.612l0.094 1.349h-16.973v-1.192c0-0.659 0.094-1.318 0.22-1.412 0.125-0.126 3.89-0.188 8.376-0.157l8.188 0.094 0.094 1.318zM24.157 16.314v9.255h-16.941v-18.51h16.941v9.255zM24.094 27.984l-0.094 1.349h-16.627l-0.094-1.349-0.094-1.318h17.004l-0.094 1.318z"></path>
<path d="M14.024 4.267c-0.533 0.565-0.094 0.753 1.694 0.753 1.38 0 1.882-0.094 1.788-0.408-0.157-0.408-3.106-0.722-3.482-0.345z"></path>
<path d="M14.745 28.078c0 0.314 0.314 0.471 0.941 0.471s0.941-0.157 0.941-0.471c0-0.314-0.314-0.471-0.941-0.471s-0.941 0.157-0.941 0.471z"></path>
</svg>
