<?xml version="1.0" encoding="utf-8"?>
<!-- Generated by IcoMoon.io -->
<!DOCTYPE svg PUBLIC "-//W3C//DTD SVG 1.1//EN" "http://www.w3.org/Graphics/SVG/1.1/DTD/svg11.dtd">
<svg version="1.1" xmlns="http://www.w3.org/2000/svg" xmlns:xlink="http://www.w3.org/1999/xlink" width="32" height="32" viewBox="0 0 32 32">
<path d="M3.42 1.788c-1.851 1.129-1.851 1.098-1.851 14.525 0 10.824 0.063 12.392 0.502 13.176 1.129 1.882 1.161 1.882 13.616 1.882s12.486 0 13.616-1.882c0.439-0.784 0.502-2.353 0.502-13.176 0-13.49 0-13.427-1.882-14.557-0.784-0.439-2.29-0.502-12.298-0.502-9.976 0-11.482 0.094-12.204 0.533zM27.357 3.671c0.533 0.471 0.565 1.286 0.565 12.424 0 11.827 0 11.953-0.69 12.675l-0.659 0.722h-10.855c-10.667 0-10.824 0-11.545-0.69l-0.722-0.659v-11.922c0-10.667 0.063-11.984 0.533-12.518s1.255-0.565 11.639-0.565c9.945 0 11.2 0.063 11.733 0.533z"></path>
<path d="M5.553 5.239c-0.125 0.094-0.22 4.267-0.22 9.255v9.035l0.847 0.345c1.004 0.376 18.071 0.314 19.169-0.063l0.69-0.282-0.063-9.161-0.094-9.192-10.071-0.094c-5.522-0.031-10.133 0.031-10.259 0.157zM25.035 12.047c0.031 3.263-0.031 6.055-0.188 6.212s-0.502-0.031-0.753-0.439c-0.941-1.412-2.102-2.447-2.761-2.447-0.376 0-1.224 0.627-1.976 1.443l-1.349 1.443-0.502-0.784c-0.282-0.408-0.722-0.941-0.941-1.192s-1.192-1.349-2.133-2.447c-2.29-2.667-4.016-4.424-4.392-4.424-0.439 0-2.824 2.573-2.824 3.075 0 0.22-0.188 0.376-0.376 0.314-0.408-0.126-0.784-5.522-0.471-6.337 0.094-0.251 3.075-0.345 9.349-0.345h9.224l0.094 5.929zM11.922 13.239c0.784 0.91 1.631 1.851 1.882 2.133s1.474 1.6 2.667 2.98c1.224 1.38 2.604 2.886 3.137 3.357 0.502 0.471 0.784 0.878 0.627 0.91-0.188 0.031-3.325 0.031-7.027 0h-6.745l-0.063-7.655 1.569-1.663c0.847-0.941 1.788-1.694 2.071-1.694 0.251 0 1.129 0.722 1.882 1.631zM23.467 18.886c1.443 1.506 1.663 1.914 1.569 2.824-0.094 1.004-0.125 1.035-1.569 1.004-1.255 0-1.6-0.157-2.196-0.91-0.408-0.533-0.973-1.192-1.255-1.474-0.314-0.314-0.565-0.816-0.565-1.098 0-0.627 1.569-2.353 2.039-2.227 0.157 0.063 1.067 0.91 1.976 1.882z"></path>
<path d="M17.129 8.816c-1.098 1.286-1.067 2.51 0.094 3.796 1.882 2.102 5.208 0.878 5.208-1.914 0-1.788-1.129-2.855-3.043-2.855-1.224 0-1.569 0.125-2.259 0.973zM20.643 9.6c0.91 0.91 0.125 2.635-1.192 2.635-1.506 0-2.102-1.82-0.91-2.855 0.659-0.565 1.349-0.502 2.102 0.22z"></path>
</svg>
