<?xml version="1.0" encoding="utf-8"?>
<!-- Generated by IcoMoon.io -->
<!DOCTYPE svg PUBLIC "-//W3C//DTD SVG 1.1//EN" "http://www.w3.org/Graphics/SVG/1.1/DTD/svg11.dtd">
<svg version="1.1" xmlns="http://www.w3.org/2000/svg" xmlns:xlink="http://www.w3.org/1999/xlink" width="32" height="32" viewBox="0 0 32 32">
<path d="M13.166 2.651c-3.474 2.103-5.303 6.263-4.709 10.834 0.411 3.109 0.046 3.84-3.657 7.68-3.429 3.566-4.023 4.663-3.52 6.629 0.914 3.657 4.069 3.063 8.64-1.6 3.657-3.749 4.206-3.977 7.817-3.566 6.994 0.777 12.434-3.931 12.434-10.743 0-8.686-9.463-13.851-17.006-9.234zM25.509 5.897c3.337 3.291 3.246 8.731-0.137 12.16-5.623 5.577-14.811 1.691-14.811-6.263 0-8.046 9.189-11.657 14.949-5.897zM11.474 20.206c0.731 1.143-5.76 8.137-7.543 8.137-2.103 0-1.28-2.103 2.194-5.669 3.611-3.703 4.389-4.069 5.349-2.469z"></path>
<path d="M14.629 7.314c-1.006 1.006-1.783 2.743-1.737 3.886 0.046 1.829 0.183 1.737 1.28-0.686 0.64-1.509 2.377-3.2 3.794-3.84 2.331-1.006 2.377-1.097 0.549-1.143-1.143-0.046-2.88 0.777-3.886 1.783z"></path>
</svg>
