<?xml version="1.0" encoding="utf-8"?>
<!-- Generated by IcoMoon.io -->
<!DOCTYPE svg PUBLIC "-//W3C//DTD SVG 1.1//EN" "http://www.w3.org/Graphics/SVG/1.1/DTD/svg11.dtd">
<svg version="1.1" xmlns="http://www.w3.org/2000/svg" xmlns:xlink="http://www.w3.org/1999/xlink" width="32" height="32" viewBox="0 0 32 32">
<path d="M12.8 1.676c-0.183 0.244-0.61 1.219-0.914 2.194-0.67 2.164-1.31 2.377-3.017 1.036-0.64-0.518-1.493-0.945-1.859-0.945-0.884 0-3.657 2.773-3.657 3.657 0 0.366 0.427 1.219 0.945 1.859 1.371 1.737 1.158 2.408-1.036 3.048-2.499 0.731-2.651 0.914-2.651 3.322s0.152 2.59 2.651 3.322c2.194 0.64 2.408 1.31 1.036 3.048-0.518 0.64-0.945 1.493-0.945 1.829 0 0.884 2.804 3.688 3.688 3.688 0.335 0 1.189-0.427 1.829-0.945 1.737-1.371 2.408-1.158 3.048 1.036 0.731 2.499 0.914 2.651 3.322 2.651s2.59-0.152 3.322-2.651c0.64-2.194 1.31-2.408 3.048-1.036 0.64 0.518 1.493 0.945 1.829 0.945 0.884 0 3.688-2.804 3.688-3.688 0-0.335-0.427-1.189-0.945-1.829-1.341-1.707-1.128-2.347 1.036-3.017 2.53-0.792 2.651-0.945 2.651-3.505v-2.225l-1.28-0.488c-0.731-0.244-1.707-0.579-2.225-0.731-1.28-0.366-1.341-1.31-0.183-2.773 0.518-0.64 0.945-1.493 0.945-1.829 0-0.884-2.804-3.688-3.688-3.688-0.335 0-1.189 0.427-1.829 0.945-1.737 1.371-2.408 1.158-3.048-1.036-0.274-0.975-0.701-1.95-0.884-2.194-0.518-0.64-4.358-0.64-4.876 0zM16.427 3.474c0.183 0.213 0.427 1.006 0.518 1.737 0.335 2.499 2.895 3.352 5.059 1.707 0.914-0.701 1.219-0.792 1.737-0.518 0.335 0.183 0.762 0.61 0.945 0.945 0.274 0.518 0.213 0.823-0.488 1.737-1.646 2.133-0.792 4.724 1.676 5.059 1.646 0.213 2.164 0.64 2.164 1.707s-0.518 1.493-2.164 1.707c-2.469 0.335-3.322 2.926-1.676 5.059 0.701 0.914 0.762 1.219 0.488 1.737-0.183 0.335-0.61 0.762-0.945 0.945-0.518 0.274-0.823 0.183-1.737-0.518-2.164-1.646-4.724-0.792-5.059 1.707-0.213 1.646-0.64 2.164-1.707 2.164s-1.493-0.518-1.707-2.164c-0.335-2.469-2.926-3.322-5.059-1.676-0.914 0.701-1.219 0.762-1.737 0.488-0.335-0.183-0.762-0.61-0.945-0.945-0.274-0.518-0.213-0.823 0.488-1.737 1.646-2.133 0.792-4.724-1.676-5.059-1.646-0.213-2.164-0.64-2.164-1.707s0.518-1.493 2.164-1.707c2.499-0.335 3.352-2.895 1.707-5.059-0.701-0.914-0.792-1.219-0.518-1.737 0.183-0.335 0.61-0.762 0.945-0.945 0.518-0.274 0.823-0.213 1.737 0.488 2.133 1.646 4.724 0.792 5.059-1.676 0.091-0.731 0.335-1.524 0.518-1.737 0.457-0.549 1.92-0.549 2.377 0z"></path>
<path d="M13.562 9.326c-1.128 0.274-3.017 1.798-3.962 3.17-0.792 1.189-0.914 1.646-0.914 3.352s0.122 2.164 0.914 3.352c0.518 0.731 1.554 1.768 2.286 2.286 1.189 0.792 1.646 0.914 3.352 0.914s2.164-0.122 3.352-0.914c0.731-0.518 1.768-1.554 2.286-2.286 0.792-1.189 0.914-1.646 0.914-3.352s-0.122-2.164-0.914-3.352c-1.31-1.92-3.139-3.078-5.12-3.2-0.853-0.061-1.859-0.030-2.194 0.030zM18.103 11.368c2.469 1.89 3.23 4.358 2.042 6.644-0.823 1.554-1.128 1.89-2.651 2.682-1.493 0.823-2.926 0.823-4.51 0-2.194-1.097-3.535-3.596-3.109-5.851 0.244-1.25 1.92-3.291 3.291-3.992 1.432-0.731 3.596-0.488 4.937 0.518z"></path>
<path d="M12.648 13.257c-0.945 0.945-1.067 1.28-1.067 2.59s0.122 1.646 1.067 2.59c0.945 0.945 1.28 1.067 2.59 1.067s1.646-0.152 2.53-1.036c0.579-0.579 1.128-1.402 1.189-1.829 0.274-1.31-0.091-2.316-1.189-3.413-0.884-0.884-1.219-1.036-2.53-1.036s-1.646 0.122-2.59 1.067zM16.975 14.080c1.554 1.463 0.457 4.206-1.707 4.206-1.432 0-2.469-0.975-2.469-2.408 0-2.194 2.56-3.322 4.175-1.798z"></path>
</svg>
