<?xml version="1.0" encoding="utf-8"?>
<!-- Generated by IcoMoon.io -->
<!DOCTYPE svg PUBLIC "-//W3C//DTD SVG 1.1//EN" "http://www.w3.org/Graphics/SVG/1.1/DTD/svg11.dtd">
<svg version="1.1" xmlns="http://www.w3.org/2000/svg" xmlns:xlink="http://www.w3.org/1999/xlink" width="32" height="32" viewBox="0 0 32 32">
<path d="M5.020 4.267c-3.608 2.824-4.392 3.639-4.392 4.58 0 0.502 0.157 1.224 0.376 1.6 0.188 0.376 0.471 1.098 0.596 1.631 0.784 3.106 1.537 4.235 2.824 4.235h0.91v6.055c0 5.49 0.063 6.149 0.565 6.588 0.502 0.471 1.663 0.533 9.851 0.533 8.565 0 9.286-0.031 9.757-0.565 0.471-0.502 0.533-1.443 0.533-6.588v-6.024h0.91c1.286 0 2.039-1.129 2.824-4.235 0.125-0.533 0.408-1.255 0.596-1.631 0.22-0.376 0.376-1.098 0.376-1.6 0-0.973-0.659-1.663-3.984-4.235l-1.914-1.474-9.224 0.031h-9.192l-1.412 1.098zM11.357 5.553c0.314 0.282 0.565 0.659 0.565 0.878 0 0.533 2.573 1.726 3.765 1.726 1.129 0 3.765-1.192 3.765-1.663 0-0.91 1.067-1.474 2.824-1.474 1.694 0 1.882 0.094 4.173 1.914 1.318 1.067 2.416 2.039 2.416 2.196 0 0.188-0.188 0.627-0.439 1.004s-0.533 1.224-0.627 1.851c-0.125 0.627-0.471 1.443-0.753 1.851l-0.565 0.659-0.816-0.973c-0.471-0.533-0.973-0.973-1.161-0.973-0.251 0-0.345 2.416-0.345 7.529v7.529h-16.941v-7.529c0-5.114-0.094-7.529-0.345-7.529-0.188 0-0.69 0.439-1.129 0.941-0.941 1.161-1.38 0.91-1.945-1.004-0.22-0.753-0.596-1.757-0.847-2.227-0.251-0.502-0.439-1.004-0.439-1.161 0-0.126 1.098-1.098 2.416-2.165 2.29-1.82 2.478-1.914 4.141-1.914 1.161 0 1.882 0.157 2.29 0.533zM18.635 5.302c0.282 0.439-1.318 1.349-2.667 1.506-0.878 0.125-1.474 0-2.29-0.533-0.627-0.376-1.067-0.816-0.941-0.973 0.22-0.376 5.678-0.376 5.898 0z"></path>
</svg>
