<?xml version="1.0" encoding="utf-8"?>
<!-- Generated by IcoMoon.io -->
<!DOCTYPE svg PUBLIC "-//W3C//DTD SVG 1.1//EN" "http://www.w3.org/Graphics/SVG/1.1/DTD/svg11.dtd">
<svg version="1.1" xmlns="http://www.w3.org/2000/svg" xmlns:xlink="http://www.w3.org/1999/xlink" width="32" height="32" viewBox="0 0 32 32">
<path d="M4.926 1.82c-0.408 0.439-0.533 1.192-0.533 3.169v2.573l-1.882 2.478c-1.726 2.259-1.882 2.604-1.882 4.047 0 1.349 0.125 1.663 0.973 2.353 0.533 0.439 1.161 0.816 1.412 0.816 0.376 0 0.439 1.098 0.439 6.526 0 5.961 0.063 6.588 0.565 7.059 0.533 0.471 1.788 0.533 11.733 0.533 10.384 0 11.169-0.031 11.639-0.565 0.471-0.502 0.533-1.474 0.533-7.059 0-5.71 0.063-6.494 0.502-6.494 0.251 0 0.91-0.408 1.412-0.91 0.753-0.753 0.91-1.192 0.91-2.384 0-1.286-0.22-1.726-1.882-3.922l-1.882-2.478v-2.635c0-3.922 0.816-3.671-11.357-3.671-9.475 0-10.227 0.031-10.698 0.565zM25.098 5.020v1.882h-18.824v-3.765h18.824v1.882zM8.784 8.941c0 0.188-0.973 1.788-1.255 2.039-0.094 0.094-0.627 1.129-1.224 2.29l-1.067 2.133-1.286-0.094c-1.192-0.094-1.286-0.157-1.38-1.098-0.094-0.784 0.22-1.443 1.569-3.2 1.631-2.227 1.663-2.227 3.137-2.227 0.847 0 1.506 0.063 1.506 0.157zM11.922 9.286c0 0.251-0.157 0.753-0.345 1.129-0.188 0.345-0.565 1.569-0.847 2.698l-0.533 2.102-1.537 0.094c-0.847 0.063-1.757 0-2.039-0.094-0.439-0.188-0.439-0.251-0.031-0.565 0.533-0.439 1.098-1.286 1.537-2.322 0.188-0.345 0.471-0.753 0.627-0.878 0.188-0.094 0.345-0.408 0.345-0.659s0.251-0.816 0.565-1.224c0.627-0.878 2.259-1.098 2.259-0.282zM15.341 9.224c0.282 0.345 0.282 0.502 0.031 0.659s-0.345 1.098-0.251 2.792l0.094 2.541-1.694 0.094c-2.196 0.126-2.761-0.063-2.196-0.784 0.408-0.471 1.035-2.322 1.412-4.173 0.094-0.439 0.22-0.973 0.282-1.192 0.188-0.533 1.882-0.471 2.322 0.063zM18.573 10.039c0.408 2.039 1.035 3.984 1.474 4.486 0.565 0.69 0 0.91-2.039 0.784l-1.537-0.094 0.094-1.631c0.031-0.878-0.063-2.227-0.22-2.949-0.345-1.537-0.094-1.914 1.224-1.788 0.627 0.063 0.816 0.314 1.004 1.192zM21.678 9.475c0.314 0.408 0.565 0.973 0.596 1.255 0 0.282 0.157 0.627 0.345 0.722 0.157 0.126 0.439 0.533 0.627 0.878 0.439 1.035 1.035 1.914 1.474 2.196 0.722 0.471 0.031 0.847-1.631 0.847-1.851 0-2.133-0.314-2.573-2.729-0.094-0.659-0.376-1.506-0.627-1.882s-0.439-0.973-0.439-1.349c0-0.878 1.443-0.847 2.227 0.063zM27.231 11.012c1.349 1.757 1.663 2.416 1.569 3.2-0.094 0.941-0.188 1.004-1.349 1.098-1.129 0.063-1.318-0.031-1.788-0.91-0.314-0.533-0.565-1.161-0.565-1.412s-0.125-0.439-0.282-0.439c-0.157 0-0.408-0.314-0.533-0.722-0.125-0.376-0.314-0.753-0.408-0.847-0.282-0.22-1.286-1.82-1.286-2.039 0-0.094 0.659-0.157 1.506-0.157 1.474 0 1.506 0 3.137 2.227zM26.039 23.373v6.149l-5.49-0.188 0.094-4.235c0.063-2.541 0-4.58-0.22-5.114l-0.345-0.847h-4.173c-4.204 0-4.204 0-4.549 0.784-0.471 1.004-0.502 6.494-0.063 8 0.408 1.412 0.126 1.569-3.2 1.569h-2.761v-12.235h20.706v6.118zM19.231 24.784l0.063 4.549h-6.557l0.063-4.329c0.031-2.384 0.126-4.424 0.188-4.549s1.506-0.22 3.169-0.22h3.043l0.031 4.549z"></path>
</svg>
