<?xml version="1.0" encoding="utf-8"?>
<!-- Generated by IcoMoon.io -->
<!DOCTYPE svg PUBLIC "-//W3C//DTD SVG 1.1//EN" "http://www.w3.org/Graphics/SVG/1.1/DTD/svg11.dtd">
<svg version="1.1" xmlns="http://www.w3.org/2000/svg" xmlns:xlink="http://www.w3.org/1999/xlink" width="32" height="32" viewBox="0 0 32 32">
<path d="M6.004 2.072l-0.823 0.853v13.531l-1.829 1.737c-1.707 1.646-1.829 1.859-1.829 3.139 0 1.371 0.061 1.432 3.931 5.272 3.718 3.657 3.962 3.87 5.15 3.87 1.067 0 1.432-0.213 3.109-1.829l1.89-1.829h13.531l0.823-0.853c0.61-0.61 0.823-1.189 0.823-2.011 0-1.097-0.427-1.585-10.789-11.947-10.484-10.453-10.85-10.789-12.008-10.789-0.884 0-1.371 0.213-1.981 0.853zM18.712 13.379c10.179 10.179 11.093 11.246 9.63 11.55-0.518 0.091-21.333-20.51-21.333-21.12 0-0.488 0.305-0.762 0.884-0.762 0.274 0 5.12 4.632 10.819 10.331zM16.305 15.086c3.688 3.688 7.406 7.345 8.29 8.107 0.884 0.792 1.493 1.493 1.402 1.615-0.091 0.091-2.56 0.183-5.486 0.183h-5.303l-4.084-4.114-4.114-4.084v-5.303c0-2.926 0.091-5.394 0.213-5.486 0.091-0.122 0.67 0.366 1.28 1.097 0.61 0.701 4.114 4.297 7.802 7.985zM12.038 23.65l2.011 1.859-1.463 1.554c-0.823 0.884-1.676 1.585-1.89 1.585-0.549 0-7.345-6.857-7.345-7.406 0-0.244 0.701-1.067 1.585-1.859l1.585-1.402 1.768 1.89c0.945 1.067 2.651 2.743 3.749 3.779z"></path>
<path d="M17.067 2.133c0 0.884 0.061 0.914 1.31 0.914 1.371 0 4.267 0.884 4.876 1.493 0.183 0.183 0.488 0.335 0.67 0.335 0.427 0 3.2 2.804 3.2 3.23 0 0.152 0.152 0.457 0.335 0.64 0.61 0.61 1.493 3.505 1.493 4.876 0 1.25 0.030 1.31 0.914 1.31 0.914 0 0.914-0.030 0.914-1.615-0.061-6.095-6.004-12.038-12.099-12.099-1.585 0-1.615 0-1.615 0.914z"></path>
<path d="M17.92 4.815c-0.305 0.061-0.549 0.274-0.549 0.518 0 0.488 0.67 0.762 1.829 0.762 0.488 0 0.945 0.122 1.036 0.274s0.518 0.366 0.975 0.457c0.884 0.244 1.219 0.488 2.743 2.011 0.61 0.579 1.158 1.432 1.25 1.92 0.091 0.457 0.305 0.914 0.427 1.006 0.152 0.091 0.274 0.549 0.274 1.036 0 1.158 0.274 1.829 0.792 1.829 0.823 0 0.61-2.347-0.396-4.48-0.853-1.768-2.926-3.81-4.663-4.571-1.28-0.579-3.017-0.914-3.718-0.762z"></path>
</svg>
