<?xml version="1.0" encoding="utf-8"?>
<!-- Generated by IcoMoon.io -->
<!DOCTYPE svg PUBLIC "-//W3C//DTD SVG 1.1//EN" "http://www.w3.org/Graphics/SVG/1.1/DTD/svg11.dtd">
<svg version="1.1" xmlns="http://www.w3.org/2000/svg" xmlns:xlink="http://www.w3.org/1999/xlink" width="32" height="32" viewBox="0 0 32 32">
<path d="M5.271 3.576c-0.282 0.471-1.318 3.953-2.353 7.718-2.165 7.812-2.541 15.059-0.847 16.753 1.6 1.6 26.259 1.6 27.859 0 1.694-1.694 1.224-9.882-1.035-17.694l-2.071-7.059-10.541-0.282c-5.741-0.094-10.729 0.094-11.012 0.565zM27.012 10.071c0.847 3.012 1.6 8 1.6 11.106l0.094 5.647h-25.412l0.094-5.647c0-3.106 0.753-8.094 1.6-11.106l1.694-5.365h18.635l1.694 5.365z"></path>
<path d="M6.306 12.235c-2.071 7.341-2.071 7.529 1.129 7.529 1.976 0 3.012 0.565 3.388 1.882 0.471 1.506 1.412 1.882 5.176 1.882s4.706-0.376 5.176-1.882c0.376-1.318 1.412-1.882 3.388-1.882 3.2 0 3.2-0.188 1.129-7.529l-1.506-5.647h-16.376l-1.506 5.647zM24.659 12.706l1.412 5.176h-2.635c-1.788 0-2.824 0.565-3.2 1.882-0.847 2.729-7.624 2.729-8.471 0-0.376-1.318-1.412-1.882-3.2-1.882h-2.635l2.824-10.353h14.494l1.412 5.176z"></path>
</svg>
