<?xml version="1.0" encoding="utf-8"?>
<!-- Generated by IcoMoon.io -->
<!DOCTYPE svg PUBLIC "-//W3C//DTD SVG 1.1//EN" "http://www.w3.org/Graphics/SVG/1.1/DTD/svg11.dtd">
<svg version="1.1" xmlns="http://www.w3.org/2000/svg" xmlns:xlink="http://www.w3.org/1999/xlink" width="32" height="32" viewBox="0 0 32 32">
<path d="M12.392 3.671c-1.035 0.251-2.353 0.596-2.886 0.753-0.565 0.188-1.694 0.439-2.51 0.596-4.957 0.91-6.369 1.757-6.369 3.765 0 1.318 1.318 2.824 2.416 2.824 0.376 0 1.035 0.126 1.475 0.314l0.816 0.314v9.38l1.318 1.067c2.008 1.6 3.482 1.914 9.035 1.914 5.867 0 7.373-0.345 9.129-2.102l1.224-1.224v-4.643c0-5.051 0-5.020 1.882-5.020 0.502 0 1.318-0.345 1.851-0.816 0.753-0.627 0.973-1.067 0.973-1.976 0-2.008-1.506-2.949-6.212-3.796-0.91-0.157-2.133-0.408-2.667-0.596-2.322-0.69-5.459-1.286-6.494-1.255-0.596 0.031-1.945 0.251-2.98 0.502zM17.474 5.459c1.224 0.439 3.388 0.941 6.212 1.443 0.878 0.125 2.353 0.471 3.294 0.722 1.474 0.376 1.726 0.565 1.726 1.161 0 0.784-0.722 1.035-7.216 2.353-1.38 0.314-3.263 0.753-4.141 1.035-1.537 0.471-1.788 0.471-3.294 0-1.506-0.439-4.737-1.192-7.31-1.663-0.502-0.094-1.631-0.345-2.51-0.596-1.286-0.345-1.569-0.533-1.569-1.129s0.282-0.784 1.726-1.161c0.941-0.251 2.447-0.596 3.294-0.722 2.824-0.502 4.988-1.004 6.118-1.443 1.443-0.533 2.227-0.533 3.671 0zM9.38 12.988c6.024 1.882 6.588 1.882 12.612 0 0.816-0.251 1.631-0.439 1.82-0.439 0.251 0 0.345 1.192 0.282 4.11l-0.094 4.11-1.098 0.565c-1.976 1.035-3.89 1.412-7.216 1.412s-5.239-0.376-7.216-1.412l-1.098-0.565-0.094-4.11c-0.063-2.918 0.031-4.11 0.282-4.11 0.188 0 1.004 0.188 1.82 0.439z"></path>
<path d="M28.298 12.8c-0.282 0.22-0.376 1.443-0.314 5.114l0.094 4.831h1.569v-5.020c0-4.204-0.063-5.020-0.471-5.082-0.251-0.063-0.659 0.031-0.878 0.157z"></path>
<path d="M27.608 25.098c-0.784 1.537-0.816 3.2-0.063 3.859 1.255 1.129 3.2 0.282 3.2-1.412 0-0.439-0.282-1.443-0.627-2.259-0.847-1.851-1.631-1.914-2.51-0.188z"></path>
</svg>
