<?xml version="1.0" encoding="utf-8"?>
<!-- Generated by IcoMoon.io -->
<!DOCTYPE svg PUBLIC "-//W3C//DTD SVG 1.1//EN" "http://www.w3.org/Graphics/SVG/1.1/DTD/svg11.dtd">
<svg version="1.1" xmlns="http://www.w3.org/2000/svg" xmlns:xlink="http://www.w3.org/1999/xlink" width="32" height="32" viewBox="0 0 32 32">
<path d="M13.44 3.322c-0.518 0.64-0.945 1.31-0.945 1.463s-0.579 1.432-1.28 2.834l-1.31 2.59-1.676 0.183c-3.627 0.396-6.248 1.006-6.918 1.615-1.31 1.128-0.945 1.92 2.377 5.303 2.926 2.956 3.078 3.2 2.865 4.114-0.091 0.549-0.335 1.92-0.488 3.078s-0.427 2.56-0.61 3.078c-0.335 0.853-0.274 1.097 0.335 1.92 0.579 0.792 0.945 0.975 1.859 0.975 0.64 0 1.25-0.122 1.341-0.305 0.091-0.152 0.914-0.67 1.768-1.097 2.225-1.097 2.956-1.524 3.352-1.92 0.427-0.427 1.829-0.427 2.255 0 0.396 0.396 1.128 0.823 3.352 1.92 0.853 0.427 1.676 0.945 1.768 1.097 0.091 0.183 0.701 0.305 1.341 0.305 0.914 0 1.28-0.183 1.859-0.975 0.61-0.823 0.67-1.067 0.335-1.92-0.183-0.518-0.457-1.92-0.61-3.078s-0.396-2.53-0.488-3.078c-0.213-0.945-0.061-1.128 2.865-4.023 2.56-2.53 3.078-3.2 3.078-3.992 0-1.128-0.945-2.133-2.011-2.133-0.427 0-1.676-0.213-2.804-0.457s-2.59-0.488-3.261-0.518c-1.219-0.091-1.219-0.091-2.53-2.834-0.731-1.524-1.463-2.956-1.615-3.2s-0.366-0.67-0.488-0.914c-0.335-0.731-1.097-1.189-1.981-1.219-0.579 0-1.067 0.335-1.737 1.189zM16.152 5.79c0.122 0.427 0.579 1.524 1.006 2.469 0.457 0.945 0.823 1.829 0.823 1.981 0.030 0.152 0.335 0.64 0.701 1.067 0.549 0.64 1.158 0.853 3.718 1.28 1.676 0.305 3.413 0.518 3.87 0.518s0.914 0.152 1.006 0.335c0.122 0.183-1.097 1.554-2.743 3.078l-2.956 2.773 0.152 1.859c0.061 1.036 0.366 2.865 0.64 4.114 0.731 3.17 0.396 3.383-2.408 1.554-0.488-0.305-1.768-1.006-2.834-1.493l-1.89-0.945-1.92 0.945c-1.036 0.488-2.286 1.189-2.804 1.493-2.804 1.829-3.139 1.615-2.408-1.554 0.274-1.25 0.579-3.078 0.64-4.114l0.152-1.859-2.956-2.773c-1.646-1.524-2.865-2.895-2.743-3.078 0.091-0.183 0.549-0.335 1.006-0.335s2.194-0.213 3.87-0.518c2.56-0.427 3.17-0.64 3.718-1.28 0.366-0.427 0.67-0.914 0.701-1.067 0-0.152 0.427-1.158 0.914-2.225 0.518-1.036 0.914-2.103 0.914-2.316 0-1.128 1.524-1.036 1.829 0.091z"></path>
</svg>
