<?xml version="1.0" encoding="utf-8"?>
<!-- Generated by IcoMoon.io -->
<!DOCTYPE svg PUBLIC "-//W3C//DTD SVG 1.1//EN" "http://www.w3.org/Graphics/SVG/1.1/DTD/svg11.dtd">
<svg version="1.1" xmlns="http://www.w3.org/2000/svg" xmlns:xlink="http://www.w3.org/1999/xlink" width="32" height="32" viewBox="0 0 32 32">
<path d="M2.408 5.394c-1.737 1.067-1.798 1.432-1.798 10.514 0 11.825-1.067 10.88 12.343 10.91h10.057l0.823-0.762c0.731-0.67 2.164-2.651 3.444-4.785 0.152-0.274 0.823-1.371 1.463-2.377 0.792-1.31 1.128-2.225 1.128-3.048s-0.335-1.737-1.128-3.048c-0.64-1.006-1.31-2.103-1.463-2.377-1.28-2.133-2.712-4.114-3.444-4.785l-0.823-0.762h-9.905c-8.625 0-9.996 0.091-10.697 0.518zM22.766 7.375c0.61 0.701 2.53 3.535 2.53 3.749 0 0.061 0.61 1.006 1.371 2.103 0.762 1.128 1.371 2.286 1.371 2.59 0 0.335-0.579 1.463-1.28 2.53-1.493 2.194-1.95 2.956-2.255 3.596-0.122 0.244-0.67 1.036-1.25 1.737l-1.036 1.31h-9.204c-8.99 0-9.173 0-9.874-0.67-0.701-0.64-0.701-0.701-0.701-8.442 0-7.558 0.030-7.771 0.67-8.472l0.64-0.701h9.204c9.143 0 9.204 0 9.813 0.67z"></path>
<path d="M19.627 13.836c-1.402 1.402-1.402 2.621 0 4.023 1.341 1.341 2.53 1.371 3.901 0.152 0.823-0.731 1.006-1.097 1.006-2.164s-0.183-1.432-1.006-2.164c-1.371-1.219-2.56-1.189-3.901 0.152zM22.735 14.75c0.945 0.945 0.244 2.621-1.097 2.621-1.31 0-2.011-1.615-1.128-2.59 0.488-0.579 1.676-0.579 2.225-0.030z"></path>
</svg>
