<?xml version="1.0" encoding="utf-8"?>
<!-- Generated by IcoMoon.io -->
<!DOCTYPE svg PUBLIC "-//W3C//DTD SVG 1.1//EN" "http://www.w3.org/Graphics/SVG/1.1/DTD/svg11.dtd">
<svg version="1.1" xmlns="http://www.w3.org/2000/svg" xmlns:xlink="http://www.w3.org/1999/xlink" width="29" height="32" viewBox="0 0 29 32">
<path d="M7.832 2.072c-0.549 0.579-0.823 1.189-0.823 1.829v0.975h-1.89c-1.646 0-2.011 0.122-2.743 0.823-0.762 0.731-0.853 1.036-0.853 2.712 0 1.798 0.061 1.95 0.914 2.469l0.914 0.518v16.853l1.128 1.097 1.097 1.128h17.493l1.097-1.128 1.128-1.097v-16.853l0.914-0.518c0.853-0.518 0.914-0.67 0.914-2.438 0-1.615-0.122-1.981-0.823-2.712-0.731-0.762-1.036-0.853-2.743-0.853h-1.92v-1.006c0-0.701-0.244-1.25-0.853-1.829l-0.853-0.823h-11.276l-0.823 0.853zM19.749 4.023l0.091 0.853h-11.002v-0.701c0-0.396 0.091-0.823 0.213-0.945 0.122-0.091 2.56-0.152 5.394-0.122l5.211 0.091 0.091 0.823zM25.234 8.137l0.091 1.31h-21.973v-1.158c0-0.64 0.091-1.28 0.213-1.371 0.122-0.122 4.998-0.183 10.88-0.152l10.697 0.091 0.091 1.28zM23.467 19.352c0 7.893 0 8.076-0.67 8.686-0.64 0.579-1.036 0.61-8.655 0.61-7.924 0-8.015 0-8.472-0.67-0.427-0.579-0.488-1.95-0.488-8.686v-8.015h18.286v8.076z"></path>
<path d="M7.162 13.47c-0.091 0.244-0.122 3.291-0.091 6.796l0.091 6.4h3.352v-13.41l-1.615-0.091c-1.097-0.061-1.646 0.030-1.737 0.305zM9.6 19.962v5.79h-1.524l-0.091-5.486c-0.030-2.987 0-5.638 0.091-5.882 0.091-0.213 0.457-0.366 0.823-0.305 0.701 0.091 0.701 0.091 0.701 5.882z"></path>
<path d="M12.648 13.47c-0.091 0.244-0.122 3.291-0.091 6.796l0.091 6.4h3.352v-13.41l-1.615-0.091c-1.097-0.061-1.646 0.030-1.737 0.305zM15.086 19.962v5.79h-1.524l-0.091-5.486c-0.030-2.987 0-5.638 0.091-5.882 0.091-0.213 0.457-0.366 0.823-0.305 0.701 0.091 0.701 0.091 0.701 5.882z"></path>
<path d="M18.133 13.47c-0.091 0.244-0.122 3.291-0.091 6.796l0.091 6.4h3.352v-13.41l-1.615-0.091c-1.097-0.061-1.646 0.030-1.737 0.305zM20.571 19.962v5.79h-1.524l-0.091-5.486c-0.030-2.987 0-5.638 0.091-5.882 0.091-0.213 0.457-0.366 0.823-0.305 0.701 0.091 0.701 0.091 0.701 5.882z"></path>
</svg>
