<?xml version="1.0" encoding="utf-8"?>
<!-- Generated by IcoMoon.io -->
<!DOCTYPE svg PUBLIC "-//W3C//DTD SVG 1.1//EN" "http://www.w3.org/Graphics/SVG/1.1/DTD/svg11.dtd">
<svg version="1.1" xmlns="http://www.w3.org/2000/svg" xmlns:xlink="http://www.w3.org/1999/xlink" width="32" height="32" viewBox="0 0 32 32">
<path d="M1.474 4.957l-0.847 0.878v12.612l0.973 0.816c0.533 0.439 1.161 0.816 1.412 0.816 0.345 0 0.439 0.471 0.439 1.945 0 1.694 0.126 2.071 0.847 2.824 0.596 0.627 1.161 0.878 1.882 0.878 0.784 0 1.161 0.22 1.569 0.847 0.973 1.506 1.725 1.945 3.231 1.945s2.259-0.439 3.231-1.914c0.502-0.816 0.69-0.878 2.886-0.878s2.384 0.063 2.886 0.847c0.973 1.506 1.726 1.945 3.231 1.945s2.259-0.439 3.231-1.945c0.408-0.659 0.784-0.847 1.6-0.847s1.286-0.251 1.882-0.973c0.784-0.91 0.816-1.129 0.816-4.831 0-3.043-0.094-3.922-0.471-4.235-0.251-0.22-0.471-0.502-0.471-0.659 0-0.345-2.761-4.361-3.702-5.396-0.753-0.784-1.004-0.847-3.263-0.847h-2.447v-1.474c0-1.161-0.188-1.663-0.847-2.353l-0.847-0.878h-16.376l-0.847 0.878zM18.353 12.078v5.961h-15.686l-0.094-5.647c-0.031-3.075 0-5.804 0.094-6.024 0.094-0.345 1.757-0.408 7.906-0.345l7.78 0.094v5.961zM26.259 12.925c0.816 1.255 1.569 2.416 1.631 2.604 0.063 0.157 0.314 0.533 0.565 0.816 0.314 0.376 0.408 1.349 0.345 3.922-0.094 3.326-0.125 3.42-0.816 3.514-0.753 0.125-1.945-0.69-1.945-1.318s-1.757-1.443-3.043-1.443c-1.286 0.031-2.102 0.565-3.012 1.945-0.502 0.816-0.69 0.878-2.886 0.878-2.227 0-2.353-0.031-3.012-0.941-0.941-1.224-2.573-1.976-3.765-1.726-0.502 0.125-1.474 0.784-2.133 1.474-0.878 0.91-1.412 1.224-1.945 1.129-0.69-0.094-0.753-0.282-0.847-1.914l-0.094-1.788h13.459l0.816-0.973c0.784-0.91 0.816-1.129 0.816-4.706v-3.733h4.329l1.537 2.259zM12.298 23.435c1.192 1.067 0.345 3.231-1.255 3.231-1.694 0-2.541-1.945-1.412-3.2 0.627-0.69 1.914-0.722 2.667-0.031zM24.533 23.435c1.192 1.067 0.345 3.231-1.255 3.231-1.694 0-2.541-1.945-1.412-3.2 0.627-0.69 1.914-0.722 2.667-0.031z"></path>
<path d="M21.678 12.047c-0.251 0.282-0.345 1.569-0.282 3.671l0.094 3.263h5.333l0.094-1.318c0.094-1.38 0.031-1.506-2.792-5.208-0.722-0.91-1.851-1.129-2.447-0.408zM24.596 14.808c1.851 2.855 1.82 3.231-0.439 3.231h-1.726l-0.094-2.761c-0.125-3.451 0.251-3.545 2.259-0.471z"></path>
</svg>
