<?xml version="1.0" encoding="utf-8"?>
<!-- Generated by IcoMoon.io -->
<!DOCTYPE svg PUBLIC "-//W3C//DTD SVG 1.1//EN" "http://www.w3.org/Graphics/SVG/1.1/DTD/svg11.dtd">
<svg version="1.1" xmlns="http://www.w3.org/2000/svg" xmlns:xlink="http://www.w3.org/1999/xlink" width="32" height="32" viewBox="0 0 32 32">
<path d="M5.059 5.79c-1.463 0.244-2.834 0.549-3.017 0.731-0.64 0.64-1.402 5.943-1.402 9.783 0 3.81 0.792 9.173 1.432 9.813 0.183 0.183 1.737 0.488 3.474 0.67 1.707 0.213 3.474 0.579 3.901 0.792 1.067 0.61 10.088 0.64 11.429 0.030 0.518-0.244 2.347-0.61 4.084-0.792 2.499-0.305 3.23-0.518 3.505-0.945 1.676-2.865 1.676-16.274 0-19.109-0.213-0.396-1.097-0.64-3.322-0.975-3.749-0.579-16.152-0.549-20.084 0zM22.796 7.467c4.602 0.518 4.145 0.183 4.785 3.474 0.945 5.15 0.244 13.44-1.219 13.745-3.901 0.792-15.116 1.006-20.114 0.366l-2.743-0.366-0.518-2.133c-0.67-2.895-0.701-9.57 0-12.495l0.518-2.133 2.743-0.335c3.596-0.457 12.83-0.518 16.549-0.122z"></path>
<path d="M9.905 8.99c-3.901 0.213-4.358 0.427-5.059 2.316-0.792 2.042-0.823 7.771-0.061 9.874 0.488 1.402 0.579 1.463 2.286 1.95 3.901 1.097 14.568 0.396 14.568-0.945 0-0.244 0.213-0.823 0.457-1.31 0.305-0.61 0.488-1.95 0.518-4.328 0.061-4.114-0.549-6.43-1.859-7.070-0.945-0.488-6.491-0.731-10.85-0.488zM19.749 10.606c0.518 0.213 0.914 0.762 1.097 1.432 0.366 1.371 0.366 7.162 0 8.533-0.274 0.914-0.457 1.097-1.646 1.341-1.707 0.396-10.088 0.396-11.733 0-0.975-0.213-1.25-0.427-1.31-1.036-0.061-0.427-0.244-0.914-0.427-1.128-0.427-0.518-0.427-6.735 0-7.162 0.213-0.213 0.366-0.61 0.366-0.884 0-0.701 0.731-1.25 2.072-1.524 1.676-0.366 10.667-0.030 11.581 0.427z"></path>
<path d="M8.869 12.739c-1.31 0.64-1.676 4.053-0.396 3.81 0.366-0.061 0.579-0.488 0.67-1.31l0.152-1.219 1.829-0.091c1.92-0.091 2.651-0.457 2.377-1.158-0.213-0.549-3.566-0.579-4.632-0.030z"></path>
<path d="M23.832 10.27c-0.457 0.457-0.457 1.554 0 2.011s1.554 0.457 2.011 0c0.853-0.853 0.213-2.377-1.006-2.377-0.366 0-0.792 0.152-1.006 0.366z"></path>
<path d="M23.863 16.213c-0.213 0.061-0.396 0.335-0.396 0.579 0 0.305 0.457 0.427 1.829 0.427 1.341 0 1.829-0.122 1.829-0.427 0-0.64-2.164-1.036-3.261-0.579z"></path>
<path d="M23.467 19.505c0 0.366 0.396 0.457 1.829 0.457s1.829-0.091 1.829-0.457c0-0.366-0.396-0.457-1.829-0.457s-1.829 0.091-1.829 0.457z"></path>
<path d="M22.552 22.248c0 0.366 0.396 0.457 1.829 0.457s1.829-0.091 1.829-0.457c0-0.366-0.396-0.457-1.829-0.457s-1.829 0.091-1.829 0.457z"></path>
</svg>
