<?xml version="1.0" encoding="utf-8"?>
<!-- Generated by IcoMoon.io -->
<!DOCTYPE svg PUBLIC "-//W3C//DTD SVG 1.1//EN" "http://www.w3.org/Graphics/SVG/1.1/DTD/svg11.dtd">
<svg version="1.1" xmlns="http://www.w3.org/2000/svg" xmlns:xlink="http://www.w3.org/1999/xlink" width="32" height="32" viewBox="0 0 32 32">
<path d="M12.038 1.768c-1.432 0.549-3.749 2.804-4.48 4.328-1.585 3.352-1.981 8.381-0.914 11.429 0.67 1.859 2.072 4.693 2.712 5.394 0.579 0.64 0.274 1.158-0.64 1.158-0.975 0-5.211 1.737-6.735 2.712-1.402 0.945-1.768 2.164-0.884 3.109 0.488 0.549 1.128 0.579 14.141 0.579 12.8 0 13.653-0.030 14.11-0.549 0.67-0.731 0.67-1.981-0.030-2.59-1.219-1.097-6.187-3.23-7.589-3.261-0.884 0-1.158-0.549-0.61-1.158 0.64-0.701 2.042-3.535 2.712-5.394 0.366-1.067 0.518-2.438 0.518-4.571 0-2.987-0.274-4.358-1.493-7.010-0.67-1.432-3.078-3.657-4.571-4.206-1.707-0.64-4.602-0.64-6.248 0.030zM17.615 3.627c2.865 1.463 4.45 4.328 4.846 8.625 0.122 1.463 0.030 2.438-0.335 3.566-0.274 0.823-0.488 1.676-0.488 1.89 0 0.731-1.92 4.206-2.804 5.12-1.707 1.737-3.627 2.286-5.15 1.493-2.499-1.341-3.931-3.566-5.303-8.29-1.067-3.535 0.030-8.442 2.377-10.85 2.042-2.103 4.663-2.682 6.857-1.554zM13.257 25.63c0.457 0.427 3.322 0.305 4.328-0.183 0.731-0.366 1.128-0.396 1.798-0.122 0.488 0.183 1.432 0.427 2.103 0.579 1.097 0.213 1.981 0.518 5.12 1.798 2.103 0.823 0.67 0.945-11.368 0.945-7.528 0-12.19-0.122-12.19-0.305 0-0.335 1.89-1.189 4.267-1.92 0.914-0.274 2.286-0.701 3.048-0.945 1.341-0.427 2.316-0.366 2.895 0.152z"></path>
</svg>
