<?xml version="1.0" encoding="utf-8"?>
<!-- Generated by IcoMoon.io -->
<!DOCTYPE svg PUBLIC "-//W3C//DTD SVG 1.1//EN" "http://www.w3.org/Graphics/SVG/1.1/DTD/svg11.dtd">
<svg version="1.1" xmlns="http://www.w3.org/2000/svg" xmlns:xlink="http://www.w3.org/1999/xlink" width="32" height="32" viewBox="0 0 32 32">
<path d="M3.075 3.012c-0.659 0.408-1.474 1.318-1.82 2.008-0.596 1.161-0.627 1.82-0.627 11.922v10.667l0.753 1.224c0.439 0.659 1.286 1.506 1.914 1.882 1.098 0.627 1.474 0.659 11.012 0.659h9.851l1.224-0.753c1.631-1.035 2.541-2.573 2.541-4.329 0-0.941 0.188-1.569 0.502-1.851 0.282-0.22 0.91-1.129 1.412-2.008 1.537-2.667 1.224-5.208-1.004-8.031-0.91-1.161-0.91-1.161-0.91-5.835v-4.675l-1.757-1.694-10.98 0.031h-10.949l-1.161 0.784zM26.071 7.216c0.094 1.757 0.063 3.137-0.125 3.388-0.596 0.753-0.941-0.157-0.878-2.384 0.063-3.42 0.784-3.2-11.106-3.2-8.941 0-10.165-0.063-10.008-0.471s1.6-0.471 11.075-0.408l10.855 0.094 0.188 2.98zM3.514 8.439c-0.063 0.533-0.314 0.973-0.533 0.973-0.878 0-0.91-3.263-0.031-3.827 0.408-0.282 0.784 1.506 0.565 2.855zM24.157 6.431c0 0.408-1.318 0.471-9.882 0.471s-9.882-0.063-9.882-0.471c0-0.408 1.318-0.471 9.882-0.471s9.882 0.063 9.882 0.471zM24.157 8.314c0 0.408-1.318 0.471-9.882 0.471s-9.882-0.063-9.882-0.471c0-0.408 1.318-0.471 9.882-0.471s9.882 0.063 9.882 0.471zM24.094 10.259c-0.063 0.314-0.345 0.565-0.659 0.533-0.282 0-4.706-0.031-9.788-0.063-8-0.063-9.255-0.126-9.255-0.533s1.318-0.471 9.914-0.471c9.255 0 9.882 0.031 9.788 0.533zM4.078 12.078c0.345 0.408 1.976 0.471 11.169 0.471h10.792v2.824h-4.831c-5.365 0-6.212 0.251-7.655 2.165-0.973 1.318-0.941 3.765 0 5.082 1.474 1.976 2.165 2.165 7.592 2.165h4.894v1.255c0 1.004-0.22 1.443-1.098 2.353l-1.129 1.098h-19.075l-1.129-1.098-1.098-1.129v-7.812c0-7.467 0.031-7.843 0.596-7.843 0.314 0 0.753 0.22 0.973 0.471zM28.361 17.004c0.722 1.004 0.627 3.012-0.188 4.549l-0.722 1.349h-10.949l-0.878-0.847c-1.098-1.035-1.161-2.541-0.188-3.859l0.69-0.941h5.239c4.267 0 5.302-0.094 5.616-0.471 0.533-0.627 0.816-0.596 1.38 0.22z"></path>
<path d="M16.69 18.792c-0.376 0.314-0.69 0.91-0.69 1.286 0 0.596 1.004 1.882 1.474 1.882 0.094 0 0.565-0.251 1.067-0.533 1.129-0.659 1.192-1.788 0.22-2.635-0.91-0.722-1.255-0.722-2.071 0z"></path>
</svg>
