<?xml version="1.0" encoding="utf-8"?>
<!-- Generated by IcoMoon.io -->
<!DOCTYPE svg PUBLIC "-//W3C//DTD SVG 1.1//EN" "http://www.w3.org/Graphics/SVG/1.1/DTD/svg11.dtd">
<svg version="1.1" xmlns="http://www.w3.org/2000/svg" xmlns:xlink="http://www.w3.org/1999/xlink" width="32" height="32" viewBox="0 0 32 32">
<path d="M1.402 6.735l-0.792 0.945v16.335l1.585 1.89h19.688l0.792-0.945c0.457-0.549 0.792-1.31 0.792-1.829 0-1.219 0.396-1.128 1.707 0.488 1.006 1.219 1.25 1.371 2.408 1.371 2.286 0 2.286 0.030 2.286-9.204 0-9.143 0.030-9.082-2.347-9.082-1.097 0-1.371 0.152-2.347 1.371-1.31 1.615-1.707 1.707-1.707 0.488 0-0.518-0.335-1.28-0.792-1.829l-0.792-0.945h-19.688l-0.792 0.945zM21.486 15.848v8.076h-18.895l-0.091-7.771c-0.030-4.267 0-7.924 0.091-8.137 0.091-0.335 2.103-0.396 9.509-0.335l9.387 0.091v8.076zM28.038 15.848c0 8.472 0 8.442-2.621 5.699-2.682-2.773-2.712-2.834-2.682-5.76l0.030-2.621 2.072-2.316c3.261-3.596 3.2-3.688 3.2 4.998z"></path>
</svg>
