<?xml version="1.0" encoding="utf-8"?>
<!-- Generated by IcoMoon.io -->
<!DOCTYPE svg PUBLIC "-//W3C//DTD SVG 1.1//EN" "http://www.w3.org/Graphics/SVG/1.1/DTD/svg11.dtd">
<svg version="1.1" xmlns="http://www.w3.org/2000/svg" xmlns:xlink="http://www.w3.org/1999/xlink" width="32" height="32" viewBox="0 0 32 32">
<path d="M11.294 1.851c-0.941 0.314-2.227 0.878-2.824 1.255-0.596 0.345-1.286 0.753-1.506 0.847-0.565 0.282-3.357 3.074-3.639 3.639-0.094 0.22-0.502 0.878-0.847 1.475-3.231 5.365-2.102 13.302 2.541 17.914 4.612 4.643 12.549 5.773 17.914 2.541 0.596-0.345 1.255-0.753 1.474-0.847 0.565-0.282 3.357-3.075 3.639-3.639 0.094-0.22 0.502-0.878 0.847-1.474 1.098-1.851 1.851-4.737 1.851-7.247 0-6.526-4.361-12.58-10.353-14.4-2.322-0.69-7.090-0.722-9.098-0.063zM19.012 3.733c1.035 0.345 2.353 0.847 2.949 1.129 1.255 0.627 4.58 3.89 5.020 4.957 0.188 0.376 0.439 0.91 0.596 1.161 0.596 1.004 1.286 3.922 1.286 5.49 0 1.694-0.753 4.486-1.757 6.431-0.69 1.38-3.482 4.141-4.863 4.863-4.298 2.165-8.157 2.227-12.486 0.188-1.349-0.627-4.926-4.016-5.365-5.051-0.157-0.439-0.439-1.004-0.596-1.255s-0.502-1.192-0.784-2.039c-1.318-4.078 0.063-9.224 3.388-12.58 3.388-3.357 8.376-4.675 12.612-3.294z"></path>
<path d="M9.255 6.996c-1.349 1.035-3.702 3.765-4.016 4.675-0.094 0.282 0.031 0.69 0.251 0.878 0.376 0.314 0.533 0.251 0.784-0.345 1.067-2.353 3.137-4.486 5.114-5.176 0.282-0.094 0.533-0.408 0.533-0.627 0-0.753-1.349-0.439-2.667 0.596z"></path>
<path d="M9.286 9.537c-2.259 2.196-2.949 3.953-1.569 3.953 0.251 0 0.439-0.314 0.439-0.784 0-0.439 0.22-0.878 0.471-0.973 0.251-0.126 0.471-0.314 0.471-0.471 0-0.376 1.161-1.537 1.537-1.537 0.157 0 0.345-0.188 0.439-0.439s0.502-0.502 0.878-0.565c1.129-0.157 1.129-0.878 0-0.878-0.722 0-1.349 0.408-2.667 1.694z"></path>
<path d="M10.447 11.106c-0.753 0.753-1.349 1.663-1.349 2.039 0 0.784 0.565 0.878 0.847 0.094s1.726-2.29 2.541-2.604c0.376-0.157 0.69-0.408 0.69-0.596 0-0.784-1.506-0.188-2.729 1.067z"></path>
<path d="M13.082 11.482c-1.945 1.318-3.043 3.075-3.043 4.894 0 3.169 2.384 5.584 5.553 5.584 2.886 0 5.741-2.855 5.741-5.71 0-4.361-4.8-7.122-8.251-4.769zM18.227 13.773c1.004 1.004 1.224 1.443 1.224 2.447 0 2.133-1.631 3.827-3.733 3.859-1.161 0-1.537-0.157-2.573-1.224-0.973-0.973-1.224-1.443-1.224-2.384 0-2.227 1.663-3.89 3.89-3.922 0.973 0 1.412 0.22 2.416 1.224z"></path>
<path d="M14.337 14.996c-1.129 1.255-0.282 3.2 1.412 3.2 1.6 0 2.447-2.165 1.255-3.231-0.753-0.69-2.039-0.659-2.667 0.031zM16.314 15.843c0.471 0.565 0.188 1.412-0.408 1.412-0.627 0-1.255-0.847-1.035-1.412 0.22-0.596 0.941-0.596 1.443 0z"></path>
<path d="M21.427 19.357c-0.282 0.816-1.726 2.322-2.51 2.635-0.91 0.345-0.941 0.91-0.063 0.91 0.376 0 1.286-0.596 2.039-1.38 0.784-0.753 1.38-1.663 1.38-2.039 0-0.784-0.565-0.878-0.847-0.125z"></path>
<path d="M23.216 19.922c0 0.439-0.22 0.878-0.471 0.973-0.251 0.125-0.471 0.314-0.471 0.471 0 0.376-1.161 1.537-1.537 1.537-0.157 0-0.345 0.188-0.439 0.439s-0.502 0.502-0.878 0.565c-1.098 0.157-1.129 0.878 0 0.878 1.6 0 5.522-4.298 4.863-5.365-0.345-0.596-1.067-0.282-1.067 0.502z"></path>
<path d="M25.098 20.424c-0.722 1.569-1.286 2.478-1.6 2.478-0.157 0-0.282 0.22-0.282 0.471s-0.22 0.471-0.471 0.471c-0.251 0-0.471 0.125-0.471 0.282 0 0.314-1.192 1.067-2.259 1.474-0.847 0.314-0.69 1.067 0.251 1.067 0.565 0 1.443-0.659 3.231-2.447 2.51-2.51 3.106-3.545 2.353-4.173-0.345-0.282-0.502-0.188-0.753 0.376z"></path>
</svg>
