<?xml version="1.0" encoding="utf-8"?>
<!-- Generated by IcoMoon.io -->
<!DOCTYPE svg PUBLIC "-//W3C//DTD SVG 1.1//EN" "http://www.w3.org/Graphics/SVG/1.1/DTD/svg11.dtd">
<svg version="1.1" xmlns="http://www.w3.org/2000/svg" xmlns:xlink="http://www.w3.org/1999/xlink" width="32" height="32" viewBox="0 0 32 32">
<path d="M11.475 1.939c-3.006 0.905-4.040 1.552-6.465 4.040-3.135 3.168-4.364 6.109-4.364 10.343s1.228 7.176 4.364 10.343c2.489 2.554 3.491 3.135 6.626 4.073 3.556 1.034 7.758 0.614 11.313-1.196 1.455-0.711 5.495-4.849 6.174-6.271 2.101-4.428 2.101-9.471 0-13.899-0.679-1.422-4.719-5.56-6.141-6.303-3.426-1.745-8.016-2.198-11.507-1.131zM12.671 4.137c-0.226 0.065-0.388 0.259-0.388 0.453s-0.42 0.873-0.97 1.551c-0.517 0.679-0.97 1.39-0.97 1.551 0 1.002-2.424 0.582-3.135-0.55-0.323-0.55-0.259-0.711 0.485-1.228 1.713-1.164 5.075-2.618 5.204-2.263 0.065 0.194-0.032 0.42-0.226 0.485zM15.192 6.659c0 2.133-0.129 3.103-0.388 3.2-0.711 0.259-3.329-0.646-3.426-1.164-0.129-0.646 3.135-5.527 3.523-5.269 0.162 0.097 0.291 1.551 0.291 3.232zM18.101 5.301c0 0.129 0.453 0.84 1.002 1.519s0.937 1.519 0.873 1.81c-0.097 0.582-2.683 1.519-3.394 1.228-0.453-0.162-0.614-6.012-0.194-6.432 0.226-0.226 1.681 1.358 1.713 1.875zM20.040 3.976c0.614 0.226 1.875 0.905 2.812 1.487 1.519 0.937 1.648 1.099 1.293 1.681-0.711 1.131-3.135 1.551-3.135 0.55 0-0.162-0.42-0.873-0.97-1.551-0.517-0.679-0.97-1.39-0.97-1.584s-0.129-0.356-0.323-0.356c-0.162 0-0.323-0.162-0.323-0.323 0-0.42 0.226-0.388 1.616 0.097zM7.079 8.533c0.226 0.259 0.711 0.55 1.131 0.646 0.905 0.226 1.228 1.131 0.711 2.004-0.194 0.323-0.42 1.487-0.517 2.554l-0.162 1.939-2.683 0.065c-3.232 0.097-3.362-0.065-2.392-3.006 1.293-3.814 2.844-5.495 3.911-4.202zM26.667 9.374c1.067 1.681 2.263 5.269 2.004 5.947-0.162 0.42-0.679 0.485-2.877 0.42l-2.683-0.065-0.162-1.939c-0.097-1.067-0.323-2.23-0.517-2.554-0.517-0.873-0.194-1.778 0.711-2.004 0.42-0.097 0.905-0.388 1.131-0.646 0.679-0.808 1.552-0.485 2.392 0.84zM11.83 10.634c0.162 0.194 0.937 0.356 1.745 0.42l1.455 0.097v4.525h-5.495l0.065-0.97c0.032-0.55 0.226-1.552 0.453-2.263 0.194-0.711 0.42-1.487 0.485-1.713 0.129-0.453 0.84-0.517 1.293-0.097zM21.042 11.475c0.129 0.55 0.42 1.584 0.614 2.36s0.259 1.519 0.162 1.681c-0.097 0.129-1.358 0.226-2.812 0.194l-2.683-0.032v-4.525l1.455-0.097c0.808-0.065 1.584-0.259 1.778-0.42 0.549-0.55 1.261-0.162 1.487 0.84zM8.436 18.909c0.097 1.067 0.356 2.36 0.582 2.909 0.517 1.228 0.226 2.327-0.679 2.618-0.42 0.129-0.905 0.42-1.067 0.679-0.194 0.259-0.55 0.356-0.84 0.259-1.293-0.485-4.234-6.788-3.749-8.049 0.194-0.453 0.646-0.517 2.877-0.453l2.683 0.097 0.194 1.939zM15.030 19.717v2.747l-2.069 0.259c-1.131 0.129-2.133 0.162-2.23 0.097-0.065-0.097-0.259-0.711-0.42-1.39-0.129-0.679-0.42-1.842-0.614-2.618s-0.259-1.519-0.162-1.681c0.097-0.129 1.358-0.226 2.812-0.194l2.683 0.032v2.747zM21.754 17.939c-0.032 0.549-0.194 1.487-0.388 2.101s-0.42 1.552-0.517 2.036c-0.194 0.905-0.194 0.905-2.198 0.679-1.099-0.129-2.101-0.259-2.198-0.323-0.162-0.097-0.162-5.398 0-5.495 0 0 1.228 0 2.715 0l2.651 0.032-0.065 0.97zM28.671 17.358c0.291 0.776-0.808 3.879-2.133 5.98-1.261 2.004-1.939 2.489-2.457 1.778-0.162-0.259-0.646-0.549-1.067-0.679-0.97-0.323-1.196-1.455-0.582-2.941 0.291-0.679 0.517-1.907 0.517-2.747 0-0.808 0.065-1.584 0.162-1.681s1.325-0.162 2.78-0.194c2.069-0.032 2.618 0.065 2.78 0.485zM15.127 26.311c0.065 1.422-0.032 2.683-0.194 2.844-0.194 0.194-0.905-0.582-1.842-2.004-1.616-2.424-1.616-3.006-0.065-3.329 1.875-0.388 2.004-0.259 2.101 2.489zM19.362 24.404c0.388 0.356 0.194 0.776-1.099 2.715-0.808 1.261-1.648 2.23-1.81 2.101-0.356-0.194-0.388-5.075-0.065-5.43 0.356-0.323 2.424 0.097 2.974 0.614zM11.895 27.216c0.55 0.808 1.034 1.648 1.034 1.842 0 0.323-1.649-0.226-2.909-0.97-0.259-0.162-0.808-0.42-1.196-0.614-0.776-0.323-1.487-1.422-1.164-1.745 0.097-0.097 0.453-0.194 0.743-0.194 0.323 0 0.743-0.226 0.97-0.485 0.485-0.582 0.743-0.388 2.521 2.166zM23.014 25.535c0.259 0 0.582 0.097 0.679 0.194 0.323 0.323-0.388 1.422-1.164 1.745-0.388 0.194-0.937 0.453-1.196 0.614-1.261 0.743-2.909 1.293-2.909 0.97s1.487-2.586 2.554-3.911c0.42-0.485 0.549-0.517 1.002-0.097 0.291 0.259 0.743 0.485 1.034 0.485z"></path>
</svg>
